<svg xmlns="http://www.w3.org/2000/svg" viewBox="0 0 31.32 30.9"><defs><style>.cls-1{fill:#002f6e;}</style></defs><g id="Layer_2" data-name="Layer 2"><g id="Layer_1-2" data-name="Layer 1"><path class="cls-1" d="M11,14.38h4l.47,4.74H12.67Zm14.84,13A1.64,1.64,0,1,1,24,25.65h.41a1.67,1.67,0,0,1,1.43,1.69m-11.53,0a1.64,1.64,0,1,1-1.84-1.69h.41a1.68,1.68,0,0,1,1.43,1.69M10.4,12.53,8.76,7.78h5.66l.46,4.75ZM21.7,7.78l-.48,4.75H16.67L16.2,7.78Zm1.11,6.6h3.93l-1.46,4.74h-3Zm.68-6.6h5.27L27.3,12.53H23ZM20.54,19.12H17.32l-.47-4.74H21Zm5.53,2.24a1.07,1.07,0,0,0,1-.78L31.27,7a1.18,1.18,0,0,0-.16-1,1.05,1.05,0,0,0-.87-.46H8L7,2.75a1.12,1.12,0,0,0-.63-.67L1.48.08A1.07,1.07,0,0,0,.09.67v0A1.14,1.14,0,0,0,.69,2.17L5.16,4l5.47,15.86L8.56,24a1.16,1.16,0,0,0,0,1.1,1.07,1.07,0,0,0,.93.54H9.7a2.92,2.92,0,0,0-.14.31,3.69,3.69,0,0,0,0,2.77,3.48,3.48,0,0,0,.73,1.13,3.53,3.53,0,0,0,1.08.76,3.33,3.33,0,0,0,2.66,0,3.45,3.45,0,0,0,1.09-.76,3.66,3.66,0,0,0,.73-3.9c0-.1-.09-.21-.14-.31h5.52a2.92,2.92,0,0,0-.14.31,3.66,3.66,0,0,0,.73,3.9,3.45,3.45,0,0,0,1.09.76,3.33,3.33,0,0,0,2.66,0,3.41,3.41,0,0,0,1.08-.76,3.33,3.33,0,0,0,.73-1.13,3.69,3.69,0,0,0,0-2.77c0-.1-.09-.21-.14-.31h.89a1.12,1.12,0,0,0,0-2.24H11.29l1-2Z"/></g></g></svg>