<svg xmlns="http://www.w3.org/2000/svg" viewBox="0 0 28.54 31.58"><defs><style>.cls-1{fill:#002f6e;}</style></defs><g id="Layer_2" data-name="Layer 2"><g id="Layer_1-2" data-name="Layer 1"><path class="cls-1" d="M27.1,18.37,20.84,28c-.29.44-.71.94-1.29.9a1.26,1.26,0,0,1-.88-.57L14.05,22c-.26-.36-.71-1.05-.24-1.44a.77.77,0,0,1,.92.06l4.55,3c.16.12.37-.09.47-.21l6.06-6.32c.33-.35.94-.87,1.44-.5s.13,1.27-.15,1.7m.76-2.53c-1-.73-2.07-.14-2.8.62l-.69.72a7.92,7.92,0,0,0-4.79-1.59A8,8,0,1,0,27,20.49l1-1.56c.61-.93,1-2.3-.1-3.09M7.52,8.35h11V9.91h-11V8.35Zm0,3.85h11v1.55h-11V12.2Zm0,3.84H15a8.89,8.89,0,0,0-1.9,1.55H7.52V16Zm0,3.85h4A8.12,8.12,0,0,0,11,21.44H7.52ZM4.38,7.56H6.73V9.91H4.38Zm0,3.85H6.73v2.34H4.38Zm0,3.84H6.73V17.6H4.38Zm0,3.84H6.73v2.35H4.38ZM21,14.87V4.2s0,0,0,0h-1L19.6,2.23h1.91A1.37,1.37,0,0,1,22.89,3.6V15.41A9.48,9.48,0,0,0,21,14.87ZM1.38,2.22H3.07L2.8,4.16H2s0,0,0,0V26.87s0,0,0,0H11.4a9,9,0,0,0,1.09,1.94H1.38A1.38,1.38,0,0,1,0,27.46V3.6A1.39,1.39,0,0,1,1.38,2.22Zm10.06.16a.73.73,0,1,1,.73-.72.72.72,0,0,1-.73.72M19,1.9a.55.55,0,0,0-.51-.51H13.08a1.66,1.66,0,0,0-3.27,0H4.21a.54.54,0,0,0-.51.51L3.27,5V5a.49.49,0,0,0,.51.47H18.94A.49.49,0,0,0,19.41,5Z"/></g></g></svg>