<svg xmlns="http://www.w3.org/2000/svg" viewBox="0 0 35.76 30.9"><defs><style>.cls-1{fill:#002f6e;}</style></defs><g id="Layer_2" data-name="Layer 2"><g id="Layer_1-2" data-name="Layer 1"><path class="cls-1" d="M26.47,16.07l-1.29-2.23.89-.51L23.16,12l-.33,3.16.89-.51L25,16.92l1.47-.85Zm3.48-2-1.29-2.23.89-.51L26.64,10l-.33,3.16.89-.51,1.29,2.23L30,14.06ZM23,5l.93,1.61L21.62,8l-.93-1.62-4,2.28,6,10.38L33.1,13l-6-10.38L23,5Zm4.82-5,7.94,13.74L23.14,21a5.56,5.56,0,0,0-1.8-.51L14.08,7.93,27.82,0ZM26.14,24.61l7.64-4.41a1.43,1.43,0,0,0-1.43-2.47l-7.64,4.41a5.65,5.65,0,0,1,1.43,2.47Zm-6.82-4L8.55,2a1.43,1.43,0,0,0-2-.52,1.42,1.42,0,0,0-.52,2L9.26,9H1.14a1.14,1.14,0,0,0,0,2.28h9.44l6.25,10.82a5.56,5.56,0,0,1,2.49-1.4Zm1.4,2.92a2.52,2.52,0,1,0,2.52,2.52A2.52,2.52,0,0,0,20.72,23.57Zm0-2.29a4.81,4.81,0,1,1-4.81,4.81,4.81,4.81,0,0,1,4.81-4.81"/></g></g></svg>