<svg xmlns="http://www.w3.org/2000/svg" viewBox="0 0 24.72 31.47"><defs><style>.cls-1{fill:#002f6e;}</style></defs><g id="Layer_2" data-name="Layer 2"><g id="Layer_1-2" data-name="Layer 1"><path class="cls-1" d="M4.72,6.19A.69.69,0,0,1,4,5.53a.7.7,0,0,1,.73-.67H20a.71.71,0,0,1,.73.67.69.69,0,0,1-.73.66Zm0,3.09A.69.69,0,0,1,4,8.62.7.7,0,0,1,4.72,8H20a.71.71,0,0,1,.73.67.7.7,0,0,1-.73.66Zm0,3.09A.7.7,0,0,1,4,11.7.69.69,0,0,1,4.72,11h8a.69.69,0,0,1,.73.66.7.7,0,0,1-.73.67ZM4.5,20.94l5.72-5.61,3.92,3.3,4.92-4.82.72.76-5.59,5.48-3.92-3.3-5,4.95Zm.37,2.16h3v4h-3Zm3.92-3.28h3v7.25h-3Zm3.92,1.56h3v5.69h-3Zm3.92-2.48h3v8.17h-3ZM1.46,2.22v27a.71.71,0,0,0,.71.72H22.55a.71.71,0,0,0,.71-.72v-27a.72.72,0,0,0-.71-.73H2.17a.72.72,0,0,0-.71.73m.71,29.25A2.19,2.19,0,0,1,0,29.26v-27A2.19,2.19,0,0,1,2.17,0H22.55a2.19,2.19,0,0,1,2.17,2.22h0v27a2.19,2.19,0,0,1-2.17,2.21Z"/></g></g></svg>