<svg xmlns="http://www.w3.org/2000/svg" viewBox="0 0 39.39 30.9"><defs><style>.cls-1{fill:#002f6e;}</style></defs><g id="Layer_2" data-name="Layer 2"><g id="Layer_1-2" data-name="Layer 1"><path class="cls-1" d="M5.72,22.39H1.52V1.52H37.87V22.39H5.72Zm15.33,2.32a1.36,1.36,0,1,1-1.36-1.36,1.35,1.35,0,0,1,1.36,1.36M38.08,0H1.31A1.31,1.31,0,0,0,0,1.31V25.43a1.31,1.31,0,0,0,1.31,1.31H16.49V28.5h-5.2v2.4H28.1V28.5H22.9V26.74H38.08a1.31,1.31,0,0,0,1.31-1.31V1.31A1.31,1.31,0,0,0,38.08,0M22.83,4.87a6.29,6.29,0,1,0,6.29,6.29,6.29,6.29,0,0,0-6.29-6.29m0,13.87a7.58,7.58,0,1,1,7.57-7.58,7.59,7.59,0,0,1-7.57,7.58m8.22,2.37a1.44,1.44,0,0,0,1-.4A1.64,1.64,0,0,0,32,18.39l-3.13-3.32-.94.88,3.14,3.33a.44.44,0,0,1,.12.51.43.43,0,0,1-.5-.14l-2.29-2.36-.92.9,2.28,2.36a1.83,1.83,0,0,0,1.3.56M26.43,7.74H25.14v6.92h1.29Zm-1.76,0H23.38v5.47h1.29Zm-1.77,0H21.61v5.47H22.9Zm-1.77,0H19.84v5.47h1.29Zm-1.77,0H18.08v5.47h1.28Zm-4.78,0H13.29v3.65h1.29Zm-1.74,0H11.55v3.65h1.29Zm-1.57,0H10v5h1.28Zm-.85,6.76H4.11V5.6h7.65V4.31H3.47A.65.65,0,0,0,2.82,5V15.14a.65.65,0,0,0,.65.65h7Z"/></g></g></svg>