<svg xmlns="http://www.w3.org/2000/svg" viewBox="0 0 35.46 30.9"><defs><style>.cls-1{fill:#002f6e;}</style></defs><g id="Layer_2" data-name="Layer 2"><g id="Layer_1-2" data-name="Layer 1"><path class="cls-1" d="M20.51,25.61a.12.12,0,0,1-.12-.12V21.68a.12.12,0,0,1,.12-.12h1.77v1.07a.12.12,0,0,0,.12.12h0a.13.13,0,0,1,.1-.1.16.16,0,0,1,.21.1h0a.16.16,0,0,1,.11-.1.16.16,0,0,1,.21.1.14.14,0,0,1,.1-.1.16.16,0,0,1,.21.1h0a.12.12,0,0,0,.12-.12V21.56h1.77a.12.12,0,0,1,.12.12v3.81a.12.12,0,0,1-.12.12Zm6.9,0h0a.11.11,0,0,1-.11-.12V21.68a.12.12,0,0,1,.12-.12h1.76v1.07a.13.13,0,0,0,.12.12.16.16,0,0,1,.11-.1.16.16,0,0,1,.21.1h0a.14.14,0,0,1,.1-.1.16.16,0,0,1,.21.1.16.16,0,0,1,.11-.1.16.16,0,0,1,.21.1.11.11,0,0,0,.11-.12V21.56h1.78a.11.11,0,0,1,.11.12v3.81a.11.11,0,0,1-.11.12Zm-19.33,0H3.36a.12.12,0,0,1-.12-.12V21.68a.12.12,0,0,1,.12-.12H5.13v1.07a.12.12,0,0,0,.12.12.19.19,0,0,0,.16-.11.14.14,0,0,0,.1.1.17.17,0,0,0,.21-.1.16.16,0,0,0,.11.1.17.17,0,0,0,.21-.1.18.18,0,0,0,.16.11.11.11,0,0,0,.11-.12V21.56H8.08a.12.12,0,0,1,.12.12v3.81a.12.12,0,0,1-.12.12Zm6.91,0H10.27a.12.12,0,0,1-.12-.12V21.68a.12.12,0,0,1,.12-.12H12v1.07a.11.11,0,0,0,.11.12.18.18,0,0,0,.16-.11.16.16,0,0,0,.11.1.16.16,0,0,0,.21-.1h0a.13.13,0,0,0,.1.1.17.17,0,0,0,.21-.1.19.19,0,0,0,.16.11.12.12,0,0,0,.12-.12V21.56H15a.11.11,0,0,1,.11.12v3.81A.11.11,0,0,1,15,25.61ZM17.44,2.09l-15,7.46a.68.68,0,0,0-.43.61.72.72,0,0,0,.75.65H32.73a.73.73,0,0,0,.76-.65.7.7,0,0,0-.44-.61l-15-7.46A.85.85,0,0,0,17.76,2a.87.87,0,0,0-.32.06M2.19,13.26V15a.15.15,0,0,0,.15.15H5.61A.15.15,0,0,0,5.76,15h0V13.26a.15.15,0,0,0-.15-.15H2.34a.16.16,0,0,0-.15.15Zm4.59,0V15a.14.14,0,0,0,.15.15h3.26a.15.15,0,0,0,.15-.15h0V13.26a.15.15,0,0,0-.15-.15H6.93A.15.15,0,0,0,6.78,13.26Zm4.58,0V15a.15.15,0,0,0,.15.15h3.27a.15.15,0,0,0,.15-.15h0V13.26a.16.16,0,0,0-.15-.15H11.51a.16.16,0,0,0-.15.15m4.59,0V15a.15.15,0,0,0,.15.15h3.26a.14.14,0,0,0,.15-.15h0V13.26a.15.15,0,0,0-.15-.15H16.1a.15.15,0,0,0-.15.15m4.58,0V15a.15.15,0,0,0,.15.15H24A.15.15,0,0,0,24.1,15h0V13.26a.16.16,0,0,0-.15-.15H20.69a.16.16,0,0,0-.16.15m4.59,0V15a.14.14,0,0,0,.15.15h3.26a.14.14,0,0,0,.15-.15V13.26a.15.15,0,0,0-.15-.15H25.27a.15.15,0,0,0-.15.15m4.59,0V15a.14.14,0,0,0,.14.15h3.27a.15.15,0,0,0,.15-.15h0V13.26a.15.15,0,0,0-.15-.15H29.86a.15.15,0,0,0-.15.15M33.3,30.9V16.83H2.16V30.9H1.48A1.53,1.53,0,0,1,0,29.33V10.17A2.81,2.81,0,0,1,1.32,7.91l15-7.62a3.4,3.4,0,0,1,2.76,0l15,7.62a2.81,2.81,0,0,1,1.32,2.26V29.33A1.53,1.53,0,0,1,34,30.9Zm-8.07,0H20.51a.12.12,0,0,1-.12-.12V27a.12.12,0,0,1,.12-.12h1.77v1.07a.12.12,0,0,0,.12.12.16.16,0,0,1,.1-.11.16.16,0,0,1,.21.11.2.2,0,0,1,.11-.11A.17.17,0,0,1,23,28h0a.16.16,0,0,1,.1-.11.16.16,0,0,1,.21.11h0a.12.12,0,0,0,.12-.12V26.85h1.77a.12.12,0,0,1,.12.12v3.81a.12.12,0,0,1-.12.12Zm6.91,0H27.41a.11.11,0,0,1-.11-.12V27a.11.11,0,0,1,.11-.12h1.77v1.07a.12.12,0,0,0,.12.12h0a.2.2,0,0,1,.11-.11.17.17,0,0,1,.21.11.16.16,0,0,1,.1-.11.16.16,0,0,1,.21.11h0a.2.2,0,0,1,.11-.11.18.18,0,0,1,.21.11.11.11,0,0,0,.11-.12V26.85h1.78a.11.11,0,0,1,.11.12v3.81a.11.11,0,0,1-.11.12Zm-24.06,0H3.36a.12.12,0,0,1-.12-.12V27a.12.12,0,0,1,.12-.12H5.13v1.07a.12.12,0,0,0,.12.12h0a.18.18,0,0,0,.16-.12.18.18,0,0,0,.1.11.16.16,0,0,0,.21-.11.2.2,0,0,0,.11.11A.17.17,0,0,0,6,27.92a.17.17,0,0,0,.15.12.12.12,0,0,0,.12-.12V26.85H8.08A.12.12,0,0,1,8.2,27v3.81a.12.12,0,0,1-.12.12Zm6.91,0H10.26a.11.11,0,0,1-.11-.12V27a.11.11,0,0,1,.11-.12H12v1.07a.12.12,0,0,0,.12.12h0a.17.17,0,0,0,.16-.12.2.2,0,0,0,.11.11.17.17,0,0,0,.21-.1h0a.16.16,0,0,0,.1.11.17.17,0,0,0,.21-.1h0a.17.17,0,0,0,.16.12.13.13,0,0,0,.12-.12V26.85H15a.11.11,0,0,1,.11.12v3.81A.11.11,0,0,1,15,30.9Z"/></g></g></svg>