<svg xmlns="http://www.w3.org/2000/svg" viewBox="0 0 35.79 29.74"><defs><style>.cls-1{fill:#002f6e;}</style></defs><g id="Layer_2" data-name="Layer 2"><g id="Layer_1-2" data-name="Layer 1"><path class="cls-1" d="M9.15,6.13c-.15.25-.3.51-.44.78a21.89,21.89,0,0,1,4.63-.65V2.84A6.57,6.57,0,0,0,9.15,6.13Zm5.74.13a21.89,21.89,0,0,1,4.63.65c-.14-.27-.29-.53-.44-.78a6.57,6.57,0,0,0-4.19-3.29ZM2.5,10.08a11.61,11.61,0,0,1,2-1.46A15.62,15.62,0,0,1,6.72,7.54,15,15,0,0,1,7.83,5.35a11.54,11.54,0,0,1,1.5-1.92A12.47,12.47,0,0,0,2.5,10.08M7.92,8.71A18.24,18.24,0,0,0,7,14h6.39V7.77a19.21,19.21,0,0,0-5.42.94ZM5.27,9.91h0A6.49,6.49,0,0,0,1.88,14H5.4a20.14,20.14,0,0,1,.67-4.51,7.67,7.67,0,0,0-.8.43Zm0,9.65.8.44a20.32,20.32,0,0,1-.67-4.51H1.88A6.5,6.5,0,0,0,5.27,19.56Zm2.65,1.2a19.21,19.21,0,0,0,5.42.94V15.49H7A17.91,17.91,0,0,0,7.92,20.76ZM9.33,26a11.15,11.15,0,0,1-1.5-1.92,14.52,14.52,0,0,1-1.11-2.19,15.62,15.62,0,0,1-2.26-1.08,11.09,11.09,0,0,1-2-1.46A12.51,12.51,0,0,0,9.33,26Zm-.18-2.7a6.6,6.6,0,0,0,4.19,3.29V23.21a21.89,21.89,0,0,1-4.63-.65c.14.27.29.53.44.78ZM4.88,25.12A13.47,13.47,0,0,1,3.25,6a2,2,0,0,1,.19-.22A14.4,14.4,0,0,1,23.35,4.35q-.63.5-1.2,1a12.6,12.6,0,0,0-3.25-1.9,10.61,10.61,0,0,1,1.5,1.91,11.66,11.66,0,0,1,.59,1,26.45,26.45,0,0,0-1.84,2,19.71,19.71,0,0,0-4.26-.6V14h1.27a11.08,11.08,0,0,0-.26,1.51h-1V21.7a21,21,0,0,0,2.23-.19A13,13,0,0,0,18,22.89a21,21,0,0,1-3.08.32v3.42a6.23,6.23,0,0,0,3.83-2.74c.35.42.7.81,1,1.16a10.07,10.07,0,0,1-.85,1c.43-.18.84-.37,1.25-.59.22.2.42.39.62.56h0v.83A14.44,14.44,0,0,1,4.88,25.12M28.66,8.25c0,.06,4,6.1-1.92,15.54A15.72,15.72,0,0,1,23.05,28c8.89-1.3,10.73-8.77,11.1-12.21.67-6.08-3.74-11.34-5.84-13.47a12.14,12.14,0,0,1-2.78,3.35l0,0c-4.79,3.71-7.13,7.46-7,11.15.2,4.2,3.65,7.25,5,8.31,1.63-2,6.92-9.47,3.73-16.17a.75.75,0,0,1,.33-1,.83.83,0,0,1,.38-.1.79.79,0,0,1,.65.33M19.51,29.73a.76.76,0,0,1-.22-1.49,8.39,8.39,0,0,0,3.32-1.85C21,25.2,17.21,21.82,17,17c-.2-4.21,2.33-8.38,7.52-12.41,1.51-1.33,2.75-3,2.55-3.49A.72.72,0,0,1,27,.76.78.78,0,0,1,27.62,0,.83.83,0,0,1,28.3.2c.44.37,8.34,7.28,7.41,15.77a17,17,0,0,1-3,8.14c-2.72,3.74-6.91,5.63-12.46,5.63h-.76"/></g></g></svg>