<svg xmlns="http://www.w3.org/2000/svg" viewBox="0 0 31.32 35.63"><defs><style>.cls-1{fill:#002f6e;}</style></defs><g id="Layer_2" data-name="Layer 2"><g id="Layer_1-2" data-name="Layer 1"><path class="cls-1" d="M19.46,29.77h-.05a1.17,1.17,0,1,0,0,2.34h.05a1.17,1.17,0,1,0,0-2.34m-3.41,0H16a1.17,1.17,0,1,0,0,2.34h.05a1.17,1.17,0,1,0,0-2.34m-3.4,0H12.6a1.17,1.17,0,1,0,0,2.34h.05a1.17,1.17,0,1,0,0-2.34m6.76-5.38h.05a1.18,1.18,0,1,0,0-2.35h-.05a1.18,1.18,0,1,0,0,2.35m-3.41,0h.05a1.18,1.18,0,1,0,0-2.35H16a1.18,1.18,0,1,0,0,2.35m-3.4,0h.05a1.18,1.18,0,1,0,0-2.35H12.6a1.18,1.18,0,1,0,0,2.35m16.33,4.69V25a13.29,13.29,0,0,1-2.62,1.29A31.77,31.77,0,0,1,15.66,27.9,31.73,31.73,0,0,1,5,26.25,13.29,13.29,0,0,1,2.39,25v4.12c0,.69.91,1.76,3.46,2.71a29.37,29.37,0,0,0,9.81,1.5,29.35,29.35,0,0,0,9.8-1.5c2.56-.95,3.47-2,3.47-2.71M2.39,6.55c0,.69.91,1.76,3.46,2.71a29.37,29.37,0,0,0,9.81,1.5,29.35,29.35,0,0,0,9.8-1.5c2.56-.95,3.47-2,3.47-2.71S28,4.79,25.46,3.84a29.35,29.35,0,0,0-9.8-1.5,29.37,29.37,0,0,0-9.81,1.5c-2.55,1-3.46,2-3.46,2.71Zm0,14.8c0,.69.91,1.76,3.46,2.71a29.12,29.12,0,0,0,9.81,1.5,29.35,29.35,0,0,0,9.8-1.5c2.56-.95,3.47-2,3.47-2.71V17.23a12.76,12.76,0,0,1-2.62,1.29,31.81,31.81,0,0,1-10.65,1.65A31.73,31.73,0,0,1,5,18.52a13.09,13.09,0,0,1-2.63-1.29Zm26.54-7.73V10.16a13.29,13.29,0,0,1-2.62,1.29A31.81,31.81,0,0,1,15.66,13.1,31.73,31.73,0,0,1,5,11.45a13.29,13.29,0,0,1-2.62-1.29v3.46c0,.69.91,1.76,3.46,2.71a29.12,29.12,0,0,0,9.81,1.5,29.1,29.1,0,0,0,9.8-1.5C28,15.38,28.93,14.31,28.93,13.62Zm2.39,0a2.73,2.73,0,0,1,0,.41,1.07,1.07,0,0,1,0,.25v7.07a2.83,2.83,0,0,1,0,.41,1,1,0,0,1,0,.25v7.07a4,4,0,0,1-1.54,3A11.15,11.15,0,0,1,26.31,34a31.81,31.81,0,0,1-10.65,1.65A31.73,31.73,0,0,1,5,34a11.2,11.2,0,0,1-3.48-1.93,3.93,3.93,0,0,1-1.53-3V22a1,1,0,0,1,0-.25,2.83,2.83,0,0,1,0-.41V14.28A1,1,0,0,1,0,14a2.83,2.83,0,0,1,0-.41V6.55a3.93,3.93,0,0,1,1.53-3A11.2,11.2,0,0,1,5,1.65,31.73,31.73,0,0,1,15.66,0,31.81,31.81,0,0,1,26.31,1.65a11.15,11.15,0,0,1,3.47,1.93,4,4,0,0,1,1.54,3Zm-11.86.7h-.05a1.17,1.17,0,1,0,0,2.34h.06a1.17,1.17,0,1,0,0-2.34m-3.41,0H16a1.18,1.18,0,0,0-1.19,1.17A1.19,1.19,0,0,0,16,16.66h.05a1.17,1.17,0,1,0,0-2.34m-2.21,1.17a1.18,1.18,0,0,1-1.19,1.17H12.6a1.17,1.17,0,1,1,0-2.34h.05a1.18,1.18,0,0,1,1.19,1.17"/></g></g></svg>