<svg xmlns="http://www.w3.org/2000/svg" viewBox="0 0 31.64 31.47"><defs><style>.cls-1{fill:#002f6e;}</style></defs><g id="Layer_2" data-name="Layer 2"><g id="Layer_1-2" data-name="Layer 1"><path class="cls-1" d="M10.12,5.23c0,4.16-.84,4.93-5.24,4.9C.76,10.11,0,9.27,0,4.87,0,.68.79,0,5.25,0c4.26,0,4.89.71,4.87,5.23M5,21.08c4.1,0,4.68-.56,4.67-4.54,0-3.83-.62-4.44-4.46-4.46-4,0-4.71.66-4.7,4.58S1.1,21.07,5,21.08M17.24.7c-3-.32-4.67.74-4.58,4.05.11,3.83.77,4.69,4.32,4.72,3.73,0,4.44-.78,4.57-4.46.11-3.07-1-4.67-4.31-4.31M9.29,27.33c0-3.51-.81-4.28-4.24-4.41C2,22.81.76,24.17.75,27.06c0,2.73.82,4.46,4,4.41,3.59,0,4.49-.76,4.52-4.14M21,16.24c.44-2.89-1.19-3.68-3.94-3.72-3,0-3.93,1.32-3.92,4s1.26,3.87,4.1,3.85,4.12-1.23,3.76-4.16M24.09,4.86c-.12,2.12.52,3.88,3.4,4,2.27.06,4-.48,4.13-3.14.11-2.29-.17-4.23-3.18-4.33-2.4-.08-4.27.36-4.35,3.51m7.4,11.46c-.2-2.07-1.2-3.42-3.59-3.4s-3.66,1.36-3.57,3.77,1.45,3.4,3.69,3.36,3.37-1.44,3.47-3.73M20.27,27.51c.37-2.34-.67-3.55-3.33-3.54-2.31,0-3.56.79-3.58,3.26S14.14,31,16.83,31c2.34,0,3.68-.76,3.44-3.44m4.43.17a2.8,2.8,0,0,0,3.18,3c2.19,0,3.28-1.25,3.21-3.42s-1.15-3-3.21-3c-2.3,0-3.19,1.28-3.18,3.44"/></g></g></svg>