<svg xmlns="http://www.w3.org/2000/svg" viewBox="0 0 37.04 35.98"><defs><style>.cls-1{fill:#002f6e;}</style></defs><g id="Layer_2" data-name="Layer 2"><g id="Layer_1-2" data-name="Layer 1"><path class="cls-1" d="M7.14,7.13a3.28,3.28,0,0,0,3.34-3.2V3.21A3.28,3.28,0,0,0,7.14,0,3.28,3.28,0,0,0,3.79,3.21v.72A3.28,3.28,0,0,0,7.14,7.13ZM5.93,3.21a1.21,1.21,0,0,1,2.41,0v.72a1.21,1.21,0,0,1-2.41,0Zm24,3.92a3.28,3.28,0,0,0,3.34-3.2V3.21a3.35,3.35,0,0,0-6.69,0v.72A3.28,3.28,0,0,0,29.9,7.13ZM28.69,3.21a1.21,1.21,0,0,1,2.41,0v.72a1.21,1.21,0,0,1-2.41,0ZM19.28,7.13a3.28,3.28,0,0,0,3.34-3.2V3.21a3.35,3.35,0,0,0-6.69,0v.72A3.28,3.28,0,0,0,19.28,7.13ZM18.07,3.21a1.21,1.21,0,0,1,2.41,0v.72a1.21,1.21,0,0,1-2.41,0ZM8.21,23.4V34.93a1.07,1.07,0,0,1-2.14,0V23.4a1.07,1.07,0,0,1,2.14,0ZM37,11.86V22a1.07,1.07,0,0,1-2.14,0V11.86a1.91,1.91,0,0,0-2-1.85H26.34a6,6,0,0,1,1.59,4V34.93a1.07,1.07,0,0,1-2.14,0V14a3.58,3.58,0,0,0-.17-1.12h-1a1.91,1.91,0,0,0-2,1.84V34.93a1.07,1.07,0,0,1-2.14,0V14.74a4,4,0,0,1,3.65-3.9A4.39,4.39,0,0,0,21.55,10H15.48a4.36,4.36,0,0,0-2.57.83,4,4,0,0,1,3.64,3.9V34.93a1.07,1.07,0,0,1-2.14,0V14.74a1.91,1.91,0,0,0-2-1.84h-1A3.83,3.83,0,0,0,11.24,14V34.93a1.07,1.07,0,0,1-2.14,0V14a6,6,0,0,1,1.59-4H4.1a1.91,1.91,0,0,0-2,1.85V22a1.06,1.06,0,0,1-1.07,1A1.06,1.06,0,0,1,0,22V11.86A4,4,0,0,1,4.1,7.93H32.93A4,4,0,0,1,37,11.86Zm-3,.72V34.94a1.07,1.07,0,0,1-2.14,0V12.58a1.07,1.07,0,0,1,2.14,0ZM19.59,23.4V34.93a1.07,1.07,0,0,1-2.14,0V23.4a1.07,1.07,0,0,1,2.14,0ZM5.17,12.58V34.94a1.07,1.07,0,0,1-2.14,0V12.58a1.07,1.07,0,0,1,2.14,0ZM31,23.4V34.93a1.07,1.07,0,0,1-2.14,0V23.4a1.07,1.07,0,0,1,2.14,0Z"/></g></g></svg>