<svg xmlns="http://www.w3.org/2000/svg" viewBox="0 0 24.72 30.9"><defs><style>.cls-1{fill:#002f6e;}</style></defs><g id="Layer_2" data-name="Layer 2"><g id="Layer_1-2" data-name="Layer 1"><path class="cls-1" d="M12.36,15.38a1,1,0,1,1,1-1,1,1,0,0,1-1,1Zm3.14-1a3.14,3.14,0,1,0-3.14,3.14,3.13,3.13,0,0,0,3.14-3.14Zm5.14,11.84a.77.77,0,0,0-.77.76.78.78,0,0,0,.77.77A.77.77,0,0,0,21.4,27a.76.76,0,0,0-.76-.76Zm1.94,0A2.59,2.59,0,0,1,20,28.76H4.73a2.59,2.59,0,0,1-2.59-2.59V4.73A2.59,2.59,0,0,1,4.73,2.14H20a2.59,2.59,0,0,1,2.59,2.59ZM20,0H4.73A4.73,4.73,0,0,0,0,4.73V26.17A4.73,4.73,0,0,0,4.73,30.9H20a4.73,4.73,0,0,0,4.73-4.73V4.73A4.74,4.74,0,0,0,20,0ZM12.36,5.29A9.09,9.09,0,0,0,8.64,22.67l2-1.55a6.94,6.94,0,1,1,3.59-.06l-1.83,2.41a9.09,9.09,0,1,0-.08-18.18ZM4.08,4.91a.77.77,0,1,0-.76-.77.76.76,0,0,0,.76.77ZM7.46,24.35l-.06,0a1.44,1.44,0,0,0,0,2,1.42,1.42,0,0,0,2,0l.05-.06,0,0,5-6.54a.31.31,0,0,0-.06-.44.33.33,0,0,0-.38,0l-6.53,5,0,.05M20.64,4.91a.77.77,0,0,0,0-1.53.77.77,0,1,0,0,1.53Zm-16,22.26a.72.72,0,0,1-.72-.72.73.73,0,1,1,.72.72m6.49-1.93L10,26.69l-.09.1-.06.06A2,2,0,0,1,7,24L7,23.91a.6.6,0,0,1,.08-.08,8.48,8.48,0,0,1-2.6-2.35H2.65V26.2a2.14,2.14,0,0,0,2.14,2.14h9.28v-3a12.83,12.83,0,0,1-3-.06"/></g></g></svg>