<svg xmlns="http://www.w3.org/2000/svg" viewBox="0 0 36.58 35.99"><defs><style>.cls-1{fill:#002f6e;}</style></defs><g id="Layer_2" data-name="Layer 2"><g id="Layer_1-2" data-name="Layer 1"><path class="cls-1" d="M28.39,17l-4-2.37a.62.62,0,0,1-.21-.84.6.6,0,0,1,.2-.22l.31-.2a.63.63,0,0,0,.2-.83l-.26-.47-.51-.91-.89-1.57C22.41,8.11,21.51,6.54,20.62,5a8,8,0,0,0-1.13-1.52,1.71,1.71,0,0,0-1.24-.61,1.73,1.73,0,0,0-1.19.54,7.51,7.51,0,0,0-1.18,1.5c-.63,1.06-2.34,4-3,5.23a.58.58,0,0,1-.81.21l-1.35-.82a.63.63,0,0,1-.21-.84c.7-1.25,2.35-4.17,3.06-5.35a8.64,8.64,0,0,1,1.65-2A4.63,4.63,0,0,1,18.27,0a4.61,4.61,0,0,1,3.27,1.53,10,10,0,0,1,1.47,2c1,1.67,1.93,3.39,2.86,5,.38.66.75,1.33,1.12,2,.07.11.13.22.2.35l.11.2a.59.59,0,0,0,.82.21h0l.25-.17a.59.59,0,0,1,.82.21.72.72,0,0,1,.08.32v4.86a.6.6,0,0,1-.59.61.6.6,0,0,1-.29-.08M5.84,33.88a9.43,9.43,0,0,1-2.36-.3,4.6,4.6,0,0,1-3-2.33,5.35,5.35,0,0,1-.19-4.1A9.76,9.76,0,0,1,1,25.63c.91-1.69,1.85-3.4,2.76-5.06l1.09-2q.11-.18.21-.39l.11-.2A.63.63,0,0,0,5,17.16L4.73,17a.62.62,0,0,1,0-1.05l3.82-2.34a.56.56,0,0,1,.8.22.65.65,0,0,1,.08.31V19a.6.6,0,0,1-.59.62.57.57,0,0,1-.31-.1l-.19-.12a.57.57,0,0,0-.81.2h0l-.66,1.19-1,1.89Q4.53,25,3.25,27.26a2.72,2.72,0,0,0-.37,2.52A2.45,2.45,0,0,0,5,31a6,6,0,0,0,.85,0h8.08a.6.6,0,0,1,.59.62v1.66a.6.6,0,0,1-.59.62H9.74c-1.52,0-2.76,0-3.9,0m16.08,2L17.43,33a.63.63,0,0,1-.19-.85.58.58,0,0,1,.19-.19L21.9,29a.58.58,0,0,1,.82.2.7.7,0,0,1,.09.32v.87a.6.6,0,0,0,.59.62h7.45a5.74,5.74,0,0,0,1.65-.25,1.87,1.87,0,0,0,1.15-.95,2.06,2.06,0,0,0,0-1.56,8.68,8.68,0,0,0-.74-1.61L30.6,22.58a.63.63,0,0,1,.2-.85h0l1.39-.86a.59.59,0,0,1,.81.22l.83,1.47c.6,1.06,1.22,2.15,1.81,3.24a5.92,5.92,0,0,1,.76,4.47,4.58,4.58,0,0,1-3.82,3.42,9.37,9.37,0,0,1-2.05.19l-3.14,0h-4a.6.6,0,0,0-.59.61v.86a.6.6,0,0,1-.59.62.57.57,0,0,1-.31-.1"/></g></g></svg>