<svg xmlns="http://www.w3.org/2000/svg" width="63.262" height="70" viewBox="0 0 63.262 70"><defs><style>.a{fill:#002f6e;fill-rule:evenodd;}</style></defs><path class="a" d="M574.376,122.5H586.8a3.666,3.666,0,0,1,7.238,0h11.951a1.206,1.206,0,0,1,1.137,1.137l.948,6.749a1.093,1.093,0,0,1-1.137,1.137H573.429a1.09,1.09,0,0,1-1.136-1.137l.947-6.749a1.2,1.2,0,0,1,1.137-1.137ZM568.1,124.35h3.763l-.6,4.3h-1.834a.076.076,0,0,0-.072.074v50.253a.076.076,0,0,0,.072.074H590.32a19.568,19.568,0,0,0,2.426,4.3H568.1a3.06,3.06,0,0,1-3.052-3.053V127.4a3.059,3.059,0,0,1,3.052-3.052Zm43.382,28.029V128.729a.076.076,0,0,0-.073-.074H609.1l-.605-4.3h4.238a3.06,3.06,0,0,1,3.053,3.052v26.171a19.5,19.5,0,0,0-4.306-1.193Zm-36.725,9.366h5.2v5.2h-5.2v-5.2Zm0-8.521h5.2v5.2h-5.2v-5.2Zm0-8.52h5.2v5.2h-5.2v-5.2Zm0-8.521h5.2v5.2h-5.2v-5.2Zm6.954,27.317h8.969a19.348,19.348,0,0,0-1.213,3.441h-7.757V163.5Zm0-8.521h16.579a19.578,19.578,0,0,0-4.206,3.44H581.713v-3.44Zm0-8.521h24.368V149.9H581.713v-3.441Zm0-8.521h24.368v3.441H581.713v-3.441Zm26.725,16.031a17.647,17.647,0,0,1,10.629,3.539l1.54-1.608c1.616-1.688,4.013-2.981,6.2-1.361,2.356,1.747,1.573,4.776.23,6.847l-2.242,3.455a17.73,17.73,0,1,1-16.353-10.872Zm.393,17.529,13.423-14.021c.738-.771,2.087-1.924,3.19-1.106,1.21.9.3,2.811-.326,3.774l-13.875,21.389c-.63.973-1.572,2.083-2.855,1.99a2.736,2.736,0,0,1-1.95-1.264L596.2,168.274c-.588-.806-1.581-2.321-.535-3.189a1.685,1.685,0,0,1,2.04.137l10.067,6.74c.377.252.82-.214,1.061-.464ZM590.42,121.476a1.614,1.614,0,1,1-1.614,1.613,1.614,1.614,0,0,1,1.614-1.613Z" transform="translate(-565.05 -119.423)"/></svg>