<svg xmlns="http://www.w3.org/2000/svg" width="60.405" height="70" viewBox="0 0 60.405 70">
  <path id="icone_data_center" d="M304.878,257.488a2.3,2.3,0,0,1-2.3,2.3h-.1a2.3,2.3,0,0,1,0-4.6h.1A2.3,2.3,0,0,1,304.878,257.488Zm4.271-2.3h-.1a2.3,2.3,0,0,0,0,4.6h.1a2.3,2.3,0,0,0,0-4.6Zm6.57,0h-.1a2.3,2.3,0,1,0,0,4.6h.1a2.3,2.3,0,1,0,0-4.6Zm22.87-1.361a6.3,6.3,0,0,1-.052.8,2.309,2.309,0,0,1,.052.487v13.9a6.306,6.306,0,0,1-.052.8,2.307,2.307,0,0,1,.052.487v13.9a7.767,7.767,0,0,1-2.959,5.825,21.392,21.392,0,0,1-6.7,3.8c-5.524,2.091-12.82,3.243-20.545,3.243s-15.021-1.152-20.545-3.243a21.391,21.391,0,0,1-6.7-3.8,7.768,7.768,0,0,1-2.959-5.825V270.3a2.3,2.3,0,0,1,.052-.487,6.282,6.282,0,0,1-.052-.8v-13.9a2.3,2.3,0,0,1,.052-.487,6.282,6.282,0,0,1-.052-.8v-13.9a7.768,7.768,0,0,1,2.959-5.825,21.391,21.391,0,0,1,6.7-3.8c5.524-2.091,12.82-3.243,20.545-3.243s15.021,1.152,20.545,3.243a21.392,21.392,0,0,1,6.7,3.8,7.767,7.767,0,0,1,2.959,5.825Zm-4.6,0v-6.81a24.9,24.9,0,0,1-5.059,2.531c-5.524,2.091-12.82,3.243-20.545,3.243s-15.021-1.152-20.545-3.243a24.9,24.9,0,0,1-5.059-2.531v6.81c0,1.348,1.757,3.453,6.687,5.32,5.017,1.9,11.734,2.945,18.916,2.945s13.9-1.046,18.916-2.945C332.233,257.28,333.99,255.175,333.99,253.827Zm-51.207,15.187c0,1.348,1.757,3.453,6.687,5.319,5.016,1.9,11.734,2.945,18.916,2.945s13.9-1.046,18.916-2.945c4.931-1.867,6.687-3.972,6.687-5.319v-8.1a24.9,24.9,0,0,1-5.059,2.531c-5.524,2.091-12.82,3.243-20.545,3.243s-15.021-1.152-20.545-3.243a24.9,24.9,0,0,1-5.059-2.531Zm0-29.087c0,1.348,1.757,3.453,6.687,5.32,5.017,1.9,11.734,2.945,18.916,2.945s13.9-1.046,18.916-2.945c4.931-1.867,6.687-3.972,6.687-5.32s-1.757-3.453-6.687-5.32c-5.017-1.9-11.735-2.945-18.916-2.945s-13.9,1.046-18.916,2.945C284.539,236.475,282.783,238.58,282.783,239.927ZM333.99,284.2v-8.1a24.9,24.9,0,0,1-5.059,2.531c-5.524,2.091-12.82,3.243-20.545,3.243s-15.021-1.152-20.545-3.243a24.905,24.905,0,0,1-5.059-2.531v8.1c0,1.348,1.757,3.453,6.687,5.32,5.017,1.9,11.734,2.945,18.916,2.945s13.9-1.046,18.916-2.945C332.233,287.653,333.99,285.548,333.99,284.2Zm-31.51-9.226h.1a2.3,2.3,0,0,0,0-4.6h-.1a2.3,2.3,0,0,0,0,4.6Zm6.57,0h.1a2.3,2.3,0,0,0,0-4.6h-.1a2.3,2.3,0,0,0,0,4.6Zm6.57,0h.1a2.3,2.3,0,1,0,0-4.6h-.1a2.3,2.3,0,1,0,0,4.6Zm-13.042,10.588h-.1a2.3,2.3,0,0,0,0,4.6h.1a2.3,2.3,0,0,0,0-4.6Zm6.57,0h-.1a2.3,2.3,0,1,0,0,4.6h.1a2.3,2.3,0,0,0,0-4.6Zm6.57,0h-.1a2.3,2.3,0,1,0,0,4.6h.1a2.3,2.3,0,1,0,0-4.6Z" transform="translate(-278.184 -227.064)" fill="#002f6e"/>
</svg>
