<svg xmlns="http://www.w3.org/2000/svg" width="167.999" height="173.356" viewBox="0 0 167.999 173.356">
  <path id="icone_podium" d="M122.287-23.644H21.141A7.149,7.149,0,0,1,14-30.785V-85.75a7.149,7.149,0,0,1,7.141-7.142H65.572a7.106,7.106,0,0,1,2.57.478v-20.228a8.1,8.1,0,0,1,8.094-8.094h42.528a8.1,8.1,0,0,1,8.093,8.094v41.272a6.245,6.245,0,0,1,1.692-.232h46.189A6.27,6.27,0,0,1,181-65.338v35.432a6.269,6.269,0,0,1-6.262,6.262Zm4.57-41.694v37.124h47.881a1.7,1.7,0,0,0,1.692-1.692V-65.338a1.694,1.694,0,0,0-1.692-1.692H128.549A1.693,1.693,0,0,0,126.857-65.338Zm-54.143-47.3v84.426h49.573v-84.426a3.527,3.527,0,0,0-3.523-3.523H76.236A3.527,3.527,0,0,0,72.714-112.641ZM18.571-85.75v54.965a2.573,2.573,0,0,0,2.57,2.57h47V-85.75a2.574,2.574,0,0,0-2.57-2.571H21.141A2.574,2.574,0,0,0,18.571-85.75ZM76.8-134.824a2.126,2.126,0,0,1-.852-2.1l3.37-19.651L65.035-170.489a2.155,2.155,0,0,1-.542-2.194,2.13,2.13,0,0,1,1.729-1.459l19.732-2.867,8.826-17.885A2.091,2.091,0,0,1,96.7-196a2.091,2.091,0,0,1,1.919,1.107l8.826,17.885,19.732,2.867a2.153,2.153,0,0,1,1.727,1.459,2.156,2.156,0,0,1-.544,2.2L114.084-156.57l3.373,19.651a2.125,2.125,0,0,1-.854,2.1,2.16,2.16,0,0,1-2.255.162L96.7-143.942l-17.649,9.281a2.078,2.078,0,0,1-.993.252A2.146,2.146,0,0,1,76.8-134.824Zm20.9-13.431,14.808,7.786-2.829-16.486a2.15,2.15,0,0,1,.618-1.9l11.977-11.677-16.555-2.4a2.142,2.142,0,0,1-1.61-1.171l-7.4-15-7.405,15a2.147,2.147,0,0,1-1.61,1.17l-16.555,2.4,11.979,11.677a2.148,2.148,0,0,1,.615,1.9L80.9-140.468,95.7-148.253a2.163,2.163,0,0,1,1-.243A2.161,2.161,0,0,1,97.695-148.254Z" transform="translate(-13.5 196.5)" fill="#fec63e" stroke="rgba(0,0,0,0)" stroke-miterlimit="10" stroke-width="1"/>
</svg>
