<svg xmlns="http://www.w3.org/2000/svg" width="96.764" height="70" viewBox="0 0 96.764 70"><defs><style>.a{fill:#002f6e;}</style></defs><path class="a" d="M1631.2-.7c0,3.072-.028,6.144.014,9.215a2.489,2.489,0,0,1-1.531,2.5q-9.306,4.62-18.588,9.288a2.837,2.837,0,0,1-2.754-.02q-9.221-4.643-18.468-9.233a2.681,2.681,0,0,1-1.63-2.716q.052-9.08,0-18.16a2.681,2.681,0,0,1,1.625-2.719q9.311-4.609,18.583-9.3a2.693,2.693,0,0,1,2.623.026q9.343,4.7,18.709,9.346a2.322,2.322,0,0,1,1.42,2.3c-.028,3.156-.01,6.312-.01,9.468Zm-38.761-6.319c0,4.691.019,9.117-.018,13.542a1.521,1.521,0,0,0,.958,1.622c4.406,2.157,8.785,4.37,13.177,6.556.321.16.672.261,1.138.439,0-4.588.036-8.966-.044-13.342a2.3,2.3,0,0,0-.979-1.615c-1.444-.889-2.994-1.61-4.515-2.371C1599-3.764,1595.833-5.328,1592.438-7.015Zm34.574.212c-.261,0-.361-.03-.429,0-4.625,2.291-9.259,4.564-13.851,6.921a1.943,1.943,0,0,0-.77,1.459c-.092,4.118-.1,8.237-.125,12.356,0,.365.065.731.115,1.256,4.931-2.465,9.714-4.838,14.468-7.268a1.558,1.558,0,0,0,.575-1.146c.072-1.22.019-2.448.019-3.672C1627.011-.174,1627.012-3.456,1627.012-6.8ZM1595.2-10.512a3.959,3.959,0,0,0,.459.367c4.463,2.244,8.919,4.5,13.409,6.692a2.026,2.026,0,0,0,1.549-.1c4.333-2.115,8.639-4.283,12.951-6.442.213-.106.4-.258.772-.5-4.827-2.417-9.476-4.753-14.141-7.057a1.25,1.25,0,0,0-.969.026C1604.6-15.229,1599.981-12.909,1595.2-10.512ZM1568.86.973c4.542,0,9.083-.014,13.625.009a2.082,2.082,0,0,0,2.284-2.011,2.138,2.138,0,0,0-2.063-2.268c-1.969-.022-3.939-.021-5.909-.024q-3.909-.005-7.83,0c.02-.237-.005-.346.038-.4.521-.588,1.067-1.155,1.578-1.752a2.111,2.111,0,0,0,.029-2.867,2.023,2.023,0,0,0-2.949-.09c-1.989,1.919-3.936,3.883-5.858,5.869a1.823,1.823,0,0,0-.139,2.633q3.011,3.21,6.225,6.227a1.977,1.977,0,0,0,2.823-.356,2.044,2.044,0,0,0-.172-2.837l-1.819-1.828Zm81.409.706c-.533.574-1.079,1.136-1.6,1.723a2.159,2.159,0,0,0-.049,3.073,2.077,2.077,0,0,0,3.053-.167q2.721-2.67,5.388-5.394a2.154,2.154,0,0,0,.02-3.441c-1.749-1.788-3.527-3.548-5.311-5.3a2.162,2.162,0,0,0-3.15-.266c-.94.928-.865,2.1.222,3.245.522.551,1.063,1.085,1.6,1.627a45.659,45.659,0,0,1-6.356.314c-2.628.012-5.258,0-7.885.078a1.95,1.95,0,0,0-1.826,2.046,2.076,2.076,0,0,0,1.795,2.109c1.13.047,2.264-.011,3.4-.012q5.3,0,10.6,0Zm-42.589-43.442v1.3c0,4.036-.019,8.072.024,12.108.006.621.1,1.491.5,1.8a3.162,3.162,0,0,0,2.211.609c1.078-.187,1.416-1.179,1.415-2.239q-.008-6.12,0-12.24c0-.449.045-.9.081-1.585.524.484.84.769,1.148,1.064s.611.632.939.922a2.125,2.125,0,0,0,2.962.066,2.057,2.057,0,0,0-.05-3.049q-2.757-2.825-5.59-5.577a2.077,2.077,0,0,0-3.244.058q-2.781,2.708-5.486,5.495a2.11,2.11,0,0,0-.107,3.054,2.13,2.13,0,0,0,3.063-.114c.625-.594,1.174-1.266,1.757-1.9Zm-27.084,13.7c2.3,2.332,4.589,4.67,6.9,6.992.986.992,1.924,1.1,2.6.3.812-.961.375-1.756-.394-2.517q-3.137-3.1-6.236-6.235c-.254-.255-.466-.551-.84-1,.915,0,1.574.045,2.224-.011a1.449,1.449,0,0,0,1.5-1.512,1.435,1.435,0,0,0-1.554-1.579q-3.027-.042-6.054,0a1.452,1.452,0,0,0-1.58,1.562c-.027,2.018-.023,4.036-.006,6.054a1.43,1.43,0,0,0,1.549,1.577,1.44,1.44,0,0,0,1.53-1.478c.057-.65.011-1.309.011-1.964Zm55.039-.949c-1.982,1.988-3.975,3.966-5.952,5.959-.986.995-1.106,1.931-.311,2.607.959.816,1.759.383,2.518-.385q3.007-3.042,6.043-6.054c.317-.316.656-.611,1.195-1.11,0,.944-.022,1.554.005,2.162.042.958.5,1.625,1.509,1.639a1.469,1.469,0,0,0,1.6-1.67q.012-2.9,0-5.791a1.531,1.531,0,0,0-1.684-1.737q-2.961-.019-5.922,0a1.431,1.431,0,0,0-1.6,1.53,1.475,1.475,0,0,0,1.586,1.565c.632.041,1.268.008,2.2.008C1636.271-29.7,1635.965-29.346,1635.637-29.017Z" transform="translate(-1561.168 49.343)"/></svg>