<svg xmlns="http://www.w3.org/2000/svg" width="75.28" height="71" viewBox="0 0 75.28 71"><defs><style>.a{fill:#002f6e;stroke:rgba(0,0,0,0);stroke-miterlimit:10;}</style></defs><path class="a" d="M58.5-126.184l-9.123-5.693a1.2,1.2,0,0,1,0-2.032l9.089-5.682a1.2,1.2,0,0,1,1.832,1.015v1.7a1.2,1.2,0,0,0,1.2,1.2h1.086q1.85,0,3.7,0t3.7,0c2.662,0,4.713-.008,6.651-.026a11.773,11.773,0,0,0,3.348-.484,3.711,3.711,0,0,0,2.324-1.843,3.805,3.805,0,0,0,.077-3.035,18.018,18.018,0,0,0-1.509-3.138c-1.108-1.872-3.567-5.934-4.747-7.88a1.2,1.2,0,0,1,.417-1.651l2.828-1.668a1.2,1.2,0,0,1,1.64.422c.566.96,1.35,2.29,1.689,2.863,1.218,2.061,2.477,4.192,3.679,6.3,1.784,3.132,2.29,5.979,1.546,8.7-.972,3.561-3.51,5.738-7.761,6.658a20.981,20.981,0,0,1-4.158.372c-1.851.018-3.881.026-6.388.026q-1.99,0-4,0-2.034,0-4.094,0a1.2,1.2,0,0,0-1.2,1.2v1.663a1.2,1.2,0,0,1-1.2,1.2A1.185,1.185,0,0,1,58.5-126.184ZM25.856-130.09a19.623,19.623,0,0,1-4.81-.594,9.287,9.287,0,0,1-6.025-4.533,9.963,9.963,0,0,1-.378-7.963,17.824,17.824,0,0,1,1.35-2.955c1.855-3.291,3.764-6.626,5.611-9.851q1.11-1.94,2.219-3.881c.143-.249.28-.5.427-.772l.212-.391h0a1.2,1.2,0,0,0-.416-1.591l-.46-.288a1.2,1.2,0,0,1,.028-2.048l7.748-4.557a1.2,1.2,0,0,1,1.8,1.032v9.348a1.2,1.2,0,0,1-1.832,1.016l-.385-.241a1.2,1.2,0,0,0-1.671.415l-1.338,2.307L25.8-151.95q-2.61,4.491-5.22,8.979c-1.147,1.969-1.4,3.621-.751,4.91s2.1,2.054,4.318,2.3a15.51,15.51,0,0,0,1.714.073q4.973,0,9.949,0h6.467a1.2,1.2,0,0,1,1.2,1.2v3.224a1.2,1.2,0,0,1-1.2,1.2c-2.433,0-7.085.014-8.505.014C30.682-130.046,28.166-130.061,25.856-130.09ZM71.63-162.851,63.6-167.458a1.2,1.2,0,0,1-.031-2.058l.637-.392a1.2,1.2,0,0,0,.406-1.626l-.525-.9c-.356-.606-.7-1.2-1.049-1.784q-.9-1.524-1.805-3.049c-1.749-2.957-3.558-6.016-5.371-9.005a15.867,15.867,0,0,0-2.288-2.965,3.539,3.539,0,0,0-2.521-1.182,3.554,3.554,0,0,0-2.413,1.052,14.119,14.119,0,0,0-2.4,2.923c-1.284,2.066-4.756,7.825-6.166,10.166a1.2,1.2,0,0,1-1.628.416l-2.745-1.6a1.2,1.2,0,0,1-.43-1.641c1.429-2.432,4.763-8.1,6.218-10.407a17.342,17.342,0,0,1,3.339-3.973A9.673,9.673,0,0,1,51.078-196a9.584,9.584,0,0,1,6.659,2.974,19.356,19.356,0,0,1,2.972,3.821c1.978,3.244,3.931,6.585,5.819,9.815q1.133,1.937,2.269,3.872c.129.22.26.438.405.68l.231.386a1.2,1.2,0,0,0,1.649.409l.523-.317a1.2,1.2,0,0,1,1.819,1.024v9.446a1.2,1.2,0,0,1-1.2,1.2A1.188,1.188,0,0,1,71.63-162.851Z" transform="translate(-13.472 196.5)"/></svg>