<svg xmlns="http://www.w3.org/2000/svg" width="84.216" height="71.006" viewBox="0 0 84.216 71.006"><defs><style>.a{fill:#002f6e;stroke:rgba(0,0,0,0);stroke-miterlimit:10;}</style></defs><path class="a" d="M59.346-126.027a1.814,1.814,0,0,1-1.746-1.54,1.794,1.794,0,0,1,1.235-1.962,19.569,19.569,0,0,0,7.735-4.353c-3.674-2.814-12.557-10.769-13.1-22.228-.466-9.9,5.419-19.729,17.493-29.214,3.506-3.119,6.38-7.1,5.922-8.2h0a1.762,1.762,0,0,1-.137-.68,1.8,1.8,0,0,1,1.471-1.763,1.842,1.842,0,0,1,1.572.43c1.015.881,19.382,17.151,17.228,37.126h0A40.49,40.49,0,0,1,90.1-139.267C83.772-130.458,74.031-126,61.13-126,60.541-126,59.948-126.009,59.346-126.027ZM80.63-176.58c.1.138,9.2,14.342-4.469,36.579a37.426,37.426,0,0,1-8.564,9.95c20.66-3.055,24.936-20.65,25.8-28.739v0c1.544-14.309-8.707-26.7-13.578-31.713-1.529,3.315-5.053,6.642-6.46,7.888-.026.023-.053.048-.082.069-11.127,8.729-16.566,17.559-16.168,26.248.453,9.884,8.471,17.068,11.688,19.564,3.779-4.8,16.079-22.295,8.676-38.071a1.782,1.782,0,0,1,.752-2.314,1.834,1.834,0,0,1,.9-.237A1.828,1.828,0,0,1,80.63-176.58ZM25.343-136.887A31.964,31.964,0,0,1,22-182.453a33.157,33.157,0,0,1,46.272-3.3q-1.454,1.153-2.785,2.327a29.45,29.45,0,0,0-7.539-4.489,26.075,26.075,0,0,1,3.487,4.5q.728,1.187,1.371,2.464a53.486,53.486,0,0,0-4.283,4.648,46.023,46.023,0,0,0-9.9-1.42v14.634h2.948a23.584,23.584,0,0,0-.6,3.539h-2.34v14.63a47.778,47.778,0,0,0,5.2-.466,32.225,32.225,0,0,0,1.951,3.269,50.758,50.758,0,0,1-7.156.742v8.06c3.254-.606,6.333-2.834,8.89-6.458.807,1,1.625,1.913,2.422,2.736a23.9,23.9,0,0,1-1.984,2.313,29.508,29.508,0,0,0,2.914-1.381q.752.726,1.443,1.332l-.085.009v1.962a33.157,33.157,0,0,1-15.407,3.789A33.088,33.088,0,0,1,25.343-136.887Zm9.936-4.182c2.709,4.389,6.113,7.08,9.739,7.75v-8.06a49.531,49.531,0,0,1-10.776-1.528C34.571-142.277,34.915-141.66,35.279-141.07Zm.417,6.347a25.75,25.75,0,0,1-3.49-4.5,33.812,33.812,0,0,1-2.579-5.166,35.241,35.241,0,0,1-5.247-2.54,26,26,0,0,1-4.567-3.433A29.172,29.172,0,0,0,35.7-134.723Zm-3.275-12.423a44.206,44.206,0,0,0,12.6,2.225v-14.63H30.162A42.264,42.264,0,0,0,32.421-147.146Zm-6.173-2.815c.6.36,1.227.7,1.867,1.021a47.388,47.388,0,0,1-1.551-10.612H18.377C19.061-155.982,21.794-152.629,26.248-149.961Zm0-22.723h0c-4.453,2.668-7.187,6.025-7.866,9.6h8.181A47.38,47.38,0,0,1,28.114-173.7C27.473-173.381,26.848-173.042,26.248-172.684Zm6.175-2.812a42.294,42.294,0,0,0-2.259,12.406H45.018l0-14.635A44.343,44.343,0,0,0,32.423-175.5Zm-12.615,3.218a26.168,26.168,0,0,1,4.571-3.432,34.345,34.345,0,0,1,5.247-2.54,33.781,33.781,0,0,1,2.578-5.167,25.806,25.806,0,0,1,3.49-4.5A29.164,29.164,0,0,0,19.807-172.277Zm28.809-8.99a49.6,49.6,0,0,1,10.769,1.532q-.486-.953-1.032-1.839l0,0c-2.71-4.391-6.118-7.078-9.741-7.747Zm-13.337-.307c-.365.59-.707,1.2-1.037,1.839a49.535,49.535,0,0,1,10.776-1.532v-8.057C41.392-188.651,37.987-185.964,35.279-181.574Z" transform="translate(-13.488 196.506)"/></svg>