<svg xmlns="http://www.w3.org/2000/svg" width="55.321" height="70" viewBox="0 0 55.321 70"><defs><style>.a{fill:#002f6e;}</style></defs><path class="a" d="M236.009-78.78a5.564,5.564,0,0,1-5.558-5.558v-51.853h-.388a2.6,2.6,0,0,1-1.837-.792,2.6,2.6,0,0,1-.739-1.859,2.624,2.624,0,0,1,2.613-2.577h2.648a2.619,2.619,0,0,1,.269-.02h.032a2.648,2.648,0,0,1,.324.02H243.7v-1.8a5.564,5.564,0,0,1,5.558-5.558h11.777a5.564,5.564,0,0,1,5.558,5.558v1.8h10.322a2.629,2.629,0,0,1,.321-.02,2.629,2.629,0,0,1,.321.02h2.675a2.617,2.617,0,0,1,2.576,2.65,2.625,2.625,0,0,1-2.613,2.577h-.352v51.853a5.564,5.564,0,0,1-5.558,5.558Zm-.33-5.558a.327.327,0,0,0,.33.33h38.274a.327.327,0,0,0,.33-.33v-51.853H264.291a2.615,2.615,0,0,1-.32.02,2.615,2.615,0,0,1-.32-.02H246.626a2.62,2.62,0,0,1-.32.02,2.621,2.621,0,0,1-.32-.02H235.678Zm25.686-57.081v-1.8a.327.327,0,0,0-.33-.33H249.258a.327.327,0,0,0-.33.33v1.8Zm2.577,52.356a2.618,2.618,0,0,1-2.577-2.651V-128.5a2.614,2.614,0,0,1,2.573-2.634h.076a2.617,2.617,0,0,1,2.579,2.65s0,36.82,0,36.845a2.624,2.624,0,0,1-2.613,2.577Zm-8.833,0a2.617,2.617,0,0,1-2.577-2.651V-128.5a2.615,2.615,0,0,1,2.573-2.634h.076a2.618,2.618,0,0,1,2.579,2.65s0,36.82,0,36.845a2.625,2.625,0,0,1-2.614,2.577Zm-8.832,0a2.617,2.617,0,0,1-2.577-2.651V-128.5a2.615,2.615,0,0,1,2.573-2.634h.076a2.617,2.617,0,0,1,2.578,2.65s0,36.82,0,36.845a2.625,2.625,0,0,1-2.613,2.577Z" transform="translate(-227.486 148.78)"/></svg>