<svg xmlns="http://www.w3.org/2000/svg" width="168" height="168" viewBox="0 0 168 168">
  <path id="icone_alvo" d="M-2978.912-38.869a2.21,2.21,0,0,1-.868-3.044l.759-1.327a2.207,2.207,0,0,1,2.959-.849,77.6,77.6,0,0,0,36.562,9.141,77.641,77.641,0,0,0,77.554-77.553,77.641,77.641,0,0,0-77.554-77.554,76.72,76.72,0,0,0-33.149,7.419,2.21,2.21,0,0,1-2.921-.991l-.692-1.363a2.211,2.211,0,0,1,1.018-3A82.6,82.6,0,0,1-2939.5-196a83.6,83.6,0,0,1,83.5,83.5A83.6,83.6,0,0,1-2939.5-29,83.549,83.549,0,0,1-2978.912-38.869Zm-18.4,3.481a2.976,2.976,0,0,1-2.066-2.223l-2.681-12.366-12.366-2.679a2.974,2.974,0,0,1-2.222-2.068,2.973,2.973,0,0,1,.75-2.94l18.052-18.051a2.932,2.932,0,0,1,2.147-.871l15.8.242,36.17-36.171-36.173-36.172-15.8.243h-.045a2.968,2.968,0,0,1-2.1-.871l-18.052-18.051a2.975,2.975,0,0,1-.75-2.941,2.972,2.972,0,0,1,2.222-2.066l12.366-2.68,2.681-12.366a2.973,2.973,0,0,1,2.066-2.223,2.972,2.972,0,0,1,2.94.751l18.051,18.053a2.972,2.972,0,0,1,.871,2.146l-.242,15.8,38.258,38.258a2.963,2.963,0,0,1,.87,2.14,2.961,2.961,0,0,1-.871,2.1l-38.257,38.258.242,15.8a2.972,2.972,0,0,1-.871,2.147l-18.051,18.051a2.968,2.968,0,0,1-2.1.871A2.983,2.983,0,0,1-2997.309-35.388Zm-10.528-21.926,8.91,1.931a2.975,2.975,0,0,1,2.275,2.277l1.932,8.911,13.308-13.308-.2-12.921-12.919-.2Zm11.185-114.612a2.975,2.975,0,0,1-2.275,2.276l-8.91,1.931,13.308,13.308,12.919-.2.2-12.919-13.308-13.309Zm30.807,102.037a2.216,2.216,0,0,1-.671-3.137l.866-1.264a2.216,2.216,0,0,1,3-.615,43.9,43.9,0,0,0,23.15,6.548,44.406,44.406,0,0,0,44.138-44.991,44.2,44.2,0,0,0-44.137-43.3,44.052,44.052,0,0,0-21.479,5.567,2.2,2.2,0,0,1-2.93-.774l-.807-1.3a2.2,2.2,0,0,1,.775-3.083,49.977,49.977,0,0,1,24.441-6.358,50.146,50.146,0,0,1,50.09,50.09,50.147,50.147,0,0,1-50.09,50.09A49.808,49.808,0,0,1-2965.845-69.889Zm-47.048-2.759A83.516,83.516,0,0,1-3023-112.5a83.669,83.669,0,0,1,9.043-37.83,2.21,2.21,0,0,1,3.027-.937l1.341.728a2.208,2.208,0,0,1,.911,2.943,77.725,77.725,0,0,0-8.375,35.1,77.567,77.567,0,0,0,9.364,36.974,2.207,2.207,0,0,1-.832,2.964l-1.321.766a2.206,2.206,0,0,1-1.109.3A2.2,2.2,0,0,1-3012.892-72.648Zm30.747-13.563a49.821,49.821,0,0,1-7.446-26.29,49.853,49.853,0,0,1,7.3-26.05,2.217,2.217,0,0,1,3.133-.692l1.265.854a2.218,2.218,0,0,1,.638,3,43.937,43.937,0,0,0-6.389,22.889,43.9,43.9,0,0,0,6.52,23.1,2.217,2.217,0,0,1-.621,3l-1.262.863a2.19,2.19,0,0,1-1.24.385A2.228,2.228,0,0,1-2982.146-86.211ZM-2939.5-99.92v-1.553a2.189,2.189,0,0,1,1.746-2.159,9.055,9.055,0,0,0,7.289-8.683,8.966,8.966,0,0,0-8.158-9.181,9.293,9.293,0,0,0-1.483-.022,2.224,2.224,0,0,1-2.311-1.616l-.41-1.5a2.21,2.21,0,0,1,1.921-2.785q.7-.065,1.407-.065a15,15,0,0,1,14.983,14.981,15.007,15.007,0,0,1-12.373,14.756,2.267,2.267,0,0,1-.394.035A2.214,2.214,0,0,1-2939.5-99.92Z" transform="translate(3023.5 196.5)" fill="#fec63e" stroke="rgba(0,0,0,0)" stroke-miterlimit="10" stroke-width="1"/>
</svg>
