<svg xmlns="http://www.w3.org/2000/svg" width="57.176" height="71" viewBox="0 0 57.176 71"><defs><style>.a{fill:#002f6e;stroke:rgba(0,0,0,0);stroke-miterlimit:10;}</style></defs><path class="a" d="M18.93-126A4.929,4.929,0,0,1,14-130.929V-191.07A4.929,4.929,0,0,1,18.93-196H65.247a4.929,4.929,0,0,1,4.929,4.93v60.141A4.929,4.929,0,0,1,65.247-126Zm-1.61-65.07v60.141a1.611,1.611,0,0,0,1.61,1.609H65.247a1.61,1.61,0,0,0,1.609-1.609V-191.07a1.612,1.612,0,0,0-1.609-1.61H18.93A1.612,1.612,0,0,0,17.32-191.07Zm34.472,55.285v-18.173h6.9v18.173Zm-8.909,0v-12.658h6.9v12.658Zm-8.909,0v-16.134h6.9v16.134Zm-8.909,0v-8.83h6.9v8.83Zm-.839-13.638L37.218-161.9l8.908,7.344,11.191-10.732,1.627,1.7-12.7,12.178-8.908-7.342L25.853-147.729Zm.491-19.07a1.579,1.579,0,0,1-1.661-1.479,1.578,1.578,0,0,1,1.661-1.48H42.833a1.578,1.578,0,0,1,1.66,1.48,1.578,1.578,0,0,1-1.66,1.479Zm0-6.865a1.578,1.578,0,0,1-1.661-1.479,1.577,1.577,0,0,1,1.661-1.479H59.463a1.577,1.577,0,0,1,1.66,1.479,1.577,1.577,0,0,1-1.66,1.479Zm0-6.865a1.577,1.577,0,0,1-1.661-1.479,1.578,1.578,0,0,1,1.661-1.479H59.463a1.577,1.577,0,0,1,1.66,1.479,1.577,1.577,0,0,1-1.66,1.479Z" transform="translate(-13.5 196.5)"/></svg>