<svg xmlns="http://www.w3.org/2000/svg" width="74.106" height="71" viewBox="0 0 74.106 71"><defs><style>.a{fill:#002f6e;stroke:rgba(0,0,0,0);stroke-miterlimit:10;}</style></defs><path class="a" d="M20.158-126A5.957,5.957,0,0,1,14-131.876v-46.46a6.665,6.665,0,0,1,6.657-6.657H48.69a.911.911,0,0,1,.909.911.943.943,0,0,1-.029.229,21.131,21.131,0,0,0-.462,2.434.9.9,0,0,1-.891.77,1.625,1.625,0,0,0-1.632,1.621v7.458a.915.915,0,0,1-.914.914H43.16a.921.921,0,0,1-.914-.915v-7.456a1.622,1.622,0,0,0-1.621-1.621H19.963a1.623,1.623,0,0,0-1.621,1.621v47.065a1.628,1.628,0,0,0,1.62,1.621H67.029a1.623,1.623,0,0,0,1.622-1.621v-25.012a.9.9,0,0,1,.9-.9l.33,0c.327,0,.653-.006.982-.023h.005a.932.932,0,0,1,.875.518l1.251,2.7v23.463A5.492,5.492,0,0,1,67.652-126Zm1.708-7.738v-3.422H44.909v3.422Zm15.283-4.978v-15.816H35l4.458-4.86,4.459,4.86H41.772v15.816Zm-12.111,0v-15.816H22.892l4.459-4.86,4.458,4.86H29.66v15.816Zm55.392-9.057-6.6-14.4-.859.155a17.286,17.286,0,0,1-3.055.274,17.1,17.1,0,0,1-16.832-14.1,17.13,17.13,0,0,1,9.657-18.571A17,17,0,0,1,69.925-196a17.191,17.191,0,0,1,15.554,9.938,17.133,17.133,0,0,1-4.655,20.411l-.674.555L86.7-150.947a1.888,1.888,0,0,1-.9,2.994l-2.55,1.217a1.875,1.875,0,0,1-.752.15A2.345,2.345,0,0,1,80.43-147.773ZM64.382-191.338l-.167.077a13.667,13.667,0,0,0-7.327,8.4,13.711,13.711,0,0,0,1.4,11.091,13.709,13.709,0,0,0,11.69,6.548h0a13.368,13.368,0,0,0,4.255-.692,13.716,13.716,0,0,0,8.24-7.554,13.667,13.667,0,0,0-.147-11.136,13.593,13.593,0,0,0-12.349-7.946A13.478,13.478,0,0,0,64.382-191.338Zm-4.858,11.772a10.345,10.345,0,0,1,10.332-9.8h0a10.35,10.35,0,0,1,10.3,9.355c.089.77-.248.958-.507.148A10.35,10.35,0,0,0,66.4-186.079a10.35,10.35,0,0,0-6.331,6.559c-.09.35-.229.517-.343.517S59.5-179.2,59.523-179.566Z" transform="translate(-13.5 196.5)"/></svg>