<svg xmlns="http://www.w3.org/2000/svg" width="82.077" height="71.031" viewBox="0 0 82.077 71.031">
  <path id="icone_warehouse" d="M48.268-126h-10.8a.269.269,0,0,1-.269-.269v-8.638h0a.269.269,0,0,1,.269-.269h4.048v2.429a.27.27,0,0,0,.271.27.4.4,0,0,0,.36-.26.378.378,0,0,0,.239.238.38.38,0,0,0,.483-.238.38.38,0,0,0,.238.238.377.377,0,0,0,.479-.238.4.4,0,0,0,.359.257.271.271,0,0,0,.271-.27v-2.429h4.049a.269.269,0,0,1,.269.27v8.642h0a.268.268,0,0,1-.267.268Zm-15.786,0h-10.8a.269.269,0,0,1-.268-.269v-8.638a.269.269,0,0,1,.268-.27H25.73v2.429a.27.27,0,0,0,.271.27.4.4,0,0,0,.365-.26.381.381,0,0,0,.239.239.381.381,0,0,0,.482-.239.378.378,0,0,0,.238.238.379.379,0,0,0,.48-.238.4.4,0,0,0,.358.257.272.272,0,0,0,.271-.27v-2.429h4.05a.27.27,0,0,1,.269.27v8.642a.27.27,0,0,1-.269.269Zm55,0H76.68a.27.27,0,0,1-.27-.269v-8.638h0a.27.27,0,0,1,.27-.269h4.046v2.429a.27.27,0,0,0,.271.27.377.377,0,0,1,.239-.239.381.381,0,0,1,.483.239.379.379,0,0,1,.239-.239.379.379,0,0,1,.481.239.38.38,0,0,1,.238-.238.378.378,0,0,1,.479.238.271.271,0,0,0,.27-.27v-2.429h4.053a.269.269,0,0,1,.268.27v8.638h0a.268.268,0,0,1-.267.268Zm-15.789,0H60.89a.269.269,0,0,1-.268-.269v-8.638a.269.269,0,0,1,.268-.27h4.051v2.429h0a.27.27,0,0,0,.27.269.377.377,0,0,1,.239-.239.38.38,0,0,1,.482.239.379.379,0,0,1,.239-.239.38.38,0,0,1,.482.239.376.376,0,0,1,.238-.238.376.376,0,0,1,.478.238.272.272,0,0,0,.271-.27v-2.429h4.049a.27.27,0,0,1,.269.27v8.638h0a.269.269,0,0,1-.268.268Zm18.454,0v-31.865H18.936V-126H17.384A3.478,3.478,0,0,1,14-129.544v-43.411a6.338,6.338,0,0,1,3.026-5.118L51.375-195.35a8.035,8.035,0,0,1,6.329,0l34.348,17.277a6.32,6.32,0,0,1,3.026,5.118v43.411A3.478,3.478,0,0,1,91.694-126ZM81.922-165.96v4.015a.343.343,0,0,0,.345.345h7.455a.343.343,0,0,0,.345-.345v-4.015a.354.354,0,0,0-.345-.345H82.266A.354.354,0,0,0,81.922-165.96Zm-10.489,0v4.015a.343.343,0,0,0,.345.345h7.463a.354.354,0,0,0,.345-.345v-4.015a.366.366,0,0,0-.345-.345H71.778A.354.354,0,0,0,71.433-165.96Zm-10.481,0v4.015a.343.343,0,0,0,.345.345h7.455a.343.343,0,0,0,.345-.345v-4.015a.354.354,0,0,0-.345-.345H61.3A.354.354,0,0,0,60.952-165.96Zm-10.489,0v4.015a.354.354,0,0,0,.345.345h7.463a.343.343,0,0,0,.345-.345v-4.015a.354.354,0,0,0-.345-.345H50.808A.366.366,0,0,0,50.463-165.96Zm-10.481,0v4.015a.344.344,0,0,0,.345.345h7.456a.344.344,0,0,0,.345-.345v-4.015a.354.354,0,0,0-.345-.345H40.326A.354.354,0,0,0,39.982-165.96Zm-10.481,0v4.015a.341.341,0,0,0,.337.345H37.3a.343.343,0,0,0,.345-.345v-4.015a.354.354,0,0,0-.345-.345H29.838A.352.352,0,0,0,29.5-165.96Zm-10.489,0v4.015a.348.348,0,0,0,.345.345h7.462a.343.343,0,0,0,.345-.345v-4.015a.354.354,0,0,0-.345-.345H19.357A.364.364,0,0,0,19.013-165.96ZM53.88-191.266,19.633-174.357a1.552,1.552,0,0,0-1,1.364,1.645,1.645,0,0,0,1.723,1.487H88.84a1.65,1.65,0,0,0,1.724-1.487,1.553,1.553,0,0,0-1-1.364L55.313-191.266a1.842,1.842,0,0,0-.717-.144A1.837,1.837,0,0,0,53.88-191.266Zm-5.612,53.288H37.47a.268.268,0,0,1-.268-.269v-8.638h0a.268.268,0,0,1,.269-.268h4.048v2.429h0a.27.27,0,0,0,.271.268.4.4,0,0,0,.36-.259.378.378,0,0,0,.239.238.38.38,0,0,0,.483-.238.379.379,0,0,0,.238.238.379.379,0,0,0,.479-.238.4.4,0,0,0,.359.256h0a.27.27,0,0,0,.27-.269v-2.429h4.05a.269.269,0,0,1,.268.269v8.642h0a.268.268,0,0,1-.267.268Zm-15.786,0h-10.8a.268.268,0,0,1-.268-.269v-8.638a.268.268,0,0,1,.268-.269H25.73v2.429h0a.27.27,0,0,0,.271.268.4.4,0,0,0,.365-.259.38.38,0,0,0,.238.238.382.382,0,0,0,.484-.238.378.378,0,0,0,.238.238.379.379,0,0,0,.48-.238.394.394,0,0,0,.358.256h0a.269.269,0,0,0,.269-.269v-2.429h4.049a.27.27,0,0,1,.27.269v8.642a.27.27,0,0,1-.269.269Zm44.2,0h0a.268.268,0,0,1-.268-.269v-8.638h0a.269.269,0,0,1,.27-.268h4.046v2.429h0a.27.27,0,0,0,.271.268.378.378,0,0,1,.239-.239.38.38,0,0,1,.483.239.379.379,0,0,1,.239-.239.379.379,0,0,1,.481.239.38.38,0,0,1,.236-.235.379.379,0,0,1,.481.235h0a.269.269,0,0,0,.269-.269v-2.429h4.053a.268.268,0,0,1,.268.269v8.638h0a.268.268,0,0,1-.269.268Zm-15.79,0a.268.268,0,0,1-.268-.269v-8.638a.268.268,0,0,1,.268-.269h4.051v2.431a.268.268,0,0,0,.27.267.378.378,0,0,1,.239-.239.379.379,0,0,1,.482.239.379.379,0,0,1,.239-.239.38.38,0,0,1,.482.239.378.378,0,0,1,.236-.235.377.377,0,0,1,.48.235h0a.269.269,0,0,0,.269-.269v-2.429h4.05a.269.269,0,0,1,.268.269v8.638h0a.27.27,0,0,1-.27.268Z" transform="translate(-13.5 196.531)" fill="#002f6e" stroke="rgba(0,0,0,0)" stroke-miterlimit="10" stroke-width="1"/>
</svg>
