<?xml version="1.0" encoding="utf-8"?>
<!-- Generator: Adobe Illustrator 25.0.0, SVG Export Plug-In . SVG Version: 6.00 Build 0)  -->
<svg version="1.1" id="Layer_1" xmlns="http://www.w3.org/2000/svg" xmlns:xlink="http://www.w3.org/1999/xlink" x="0px" y="0px"
	 viewBox="0 0 61 48.5" style="enable-background:new 0 0 61 48.5;" xml:space="preserve">
<style type="text/css">
	.st0{fill:#FFC62B;}
</style>
<path id="icone_cobra" class="st0" d="M43.2,34.4c0.8,0,1.7,0.1,2.5,0.2c-3.4,6.9-9.8,11.8-17.4,13.1c-1.3,0.2-2.7,0.3-4,0.3
	C11.1,48,0.5,37.4,0.5,24.3c0-13.1,10.6-23.8,23.8-23.8c9.2,0,17.6,5.3,21.5,13.6c-0.8,0.1-1.6,0.2-2.3,0.2c-2.7,0-5.3-0.8-7.4-2.4
	c-0.5-0.5-1-0.9-1.6-1.4c-2.9-2.2-6.5-3.4-10.1-3.4c-9.4,0-17,7.6-17,17c0,9.4,7.6,17,17,17c3.6,0,7.2-1.2,10.1-3.3
	c0.5-0.4,0.9-0.7,1.4-1.1C37.9,35.2,40.5,34.4,43.2,34.4z M55,18.9c-0.6,0-1.1,0.1-1.7,0.3l0,0l0,0c-1.1,0.2-2.2,0.6-2.5,0.7
	c-0.6,0.2-5.6,2.1-9.6,2.1c-4.4,0-7.7-1.7-11.3-3.7c-1.7-1-3.7-1.6-5.7-1.7h-0.3c-0.1,0-0.2,0-0.3,0c-4.3-0.1-7.8,3.3-7.8,7.6
	c-0.1,4.3,3.3,7.8,7.6,7.8c0.1,0,0.2,0,0.3,0l0.1,0c0.2,0,0.3,0,0.5,0c2-0.1,4-0.7,5.7-1.7c3.6-2,7-3.7,11.3-3.7
	c3.9,0,9,1.9,9.6,2.1c0.9,0.3,1.9,0.6,2.9,0.8c0.4,0.1,0.8,0.1,1.2,0.1l0.1,0c3,0,5.4-2.3,5.4-5.3s-2.3-5.4-5.3-5.4
	C55.1,18.9,55.1,18.9,55,18.9L55,18.9z"/>
</svg>
