<svg xmlns="http://www.w3.org/2000/svg" width="70.983" height="70" viewBox="0 0 70.983 70"><defs><style>.a{fill:#002f6e;}</style></defs><path class="a" d="M359.87,348.408a2.459,2.459,0,0,0,2.331-1.771l9.443-30.765a2.627,2.627,0,0,0-.355-2.274,2.419,2.419,0,0,0-1.976-1.043H318.88l-2.18-6.32a2.5,2.5,0,0,0-1.411-1.51l-11.171-4.549a2.419,2.419,0,0,0-3.171,1.441,2.577,2.577,0,0,0,1.386,3.3l10.135,4.127,12.393,35.936-4.692,9.43a2.631,2.631,0,0,0,.083,2.491,2.429,2.429,0,0,0,2.09,1.221h.413q-.176.339-.322.7a8.358,8.358,0,0,0,0,6.27,8.043,8.043,0,0,0,1.658,2.558,7.7,7.7,0,0,0,2.46,1.724,7.484,7.484,0,0,0,6.031,0,7.7,7.7,0,0,0,2.46-1.724,8.039,8.039,0,0,0,1.658-2.558,8.356,8.356,0,0,0,0-6.27q-.145-.357-.321-.7H348.9q-.176.339-.321.7a8.356,8.356,0,0,0,0,6.27,8.039,8.039,0,0,0,1.658,2.558,7.7,7.7,0,0,0,2.46,1.724,7.485,7.485,0,0,0,6.031,0,7.7,7.7,0,0,0,2.46-1.724,8.04,8.04,0,0,0,1.658-2.558,8.357,8.357,0,0,0,0-6.27q-.145-.357-.322-.7h2a2.546,2.546,0,0,0,0-5.088H326.363l2.3-4.624Zm-12.546-5.088h-7.3l-1.057-10.744h9.463Zm6.7-25.677h11.941l-3.3,10.744h-9.75Zm-1.539,14.934h8.9l-3.3,10.744h-6.7Zm-2.515-14.934-1.107,10.744H338.556L337.5,317.643Zm-25.63,10.744-3.705-10.744h12.812l1.057,10.744Zm8.943,33.563a3.717,3.717,0,1,1-4.178-3.831h.928A3.813,3.813,0,0,1,333.283,361.95Zm26.141,0a3.717,3.717,0,1,1-4.178-3.831h.928A3.813,3.813,0,0,1,359.424,361.95Zm-33.64-29.373h9.132l1.057,10.744H329.49Z" transform="translate(-300.778 -300)"/></svg>