<?xml version="1.0" encoding="utf-8"?>
<!-- Generator: Adobe Illustrator 25.4.1, SVG Export Plug-In . SVG Version: 6.00 Build 0)  -->
<svg version="1.1" id="Layer_1" xmlns="http://www.w3.org/2000/svg" xmlns:xlink="http://www.w3.org/1999/xlink" x="0px" y="0px"
	 viewBox="0 0 155.87 155.87" style="enable-background:new 0 0 155.87 155.87;" xml:space="preserve">
<style type="text/css">
	.st0{fill:#FFFFFF;}
</style>
<path class="st0" d="M155.87,77.94C155.87,34.96,120.91,0,77.94,0S0,34.96,0,77.94s34.96,77.94,77.94,77.94
	S155.87,120.91,155.87,77.94z M143.87,77.94c0,36.36-29.58,65.94-65.94,65.94S12,114.29,12,77.94S41.58,12,77.94,12
	S143.87,41.58,143.87,77.94z M113.94,85.72v26.62H98.5V87.5c0-6.24-2.23-10.5-7.82-10.5c-4.27,0-6.8,2.87-7.92,5.64
	c-0.41,0.99-0.51,2.37-0.51,3.76v25.93H66.82c0,0,0.21-42.07,0-46.42h15.44v6.58c-0.03,0.05-0.07,0.1-0.1,0.15h0.1v-0.15
	c2.05-3.16,5.71-7.67,13.91-7.67C106.32,64.83,113.94,71.46,113.94,85.72L113.94,85.72z M50.67,43.54c-5.28,0-8.73,3.46-8.73,8.02
	c0,4.46,3.35,8.02,8.53,8.02h0.1c5.38,0,8.73-3.57,8.73-8.02C59.2,47,55.95,43.54,50.67,43.54L50.67,43.54z M42.85,112.34h15.43
	V65.92H42.85V112.34z M42.85,112.34"/>
</svg>
