<svg xmlns="http://www.w3.org/2000/svg" width="61" height="48.533" viewBox="0 0 61 48.533">
  <path id="icone_cobra" d="M892.736,877.947a13.077,13.077,0,0,1,2.475.241,23.815,23.815,0,0,1-17.373,13.054,24.684,24.684,0,0,1-4.019.339,23.767,23.767,0,1,1,21.5-33.892,12.229,12.229,0,0,1-2.345.221,12.525,12.525,0,0,1-7.413-2.41,15.814,15.814,0,0,0-1.6-1.355,16.853,16.853,0,0,0-10.149-3.355,17.024,17.024,0,1,0,10.142,30.7,17.324,17.324,0,0,0,1.368-1.134A12.477,12.477,0,0,1,892.736,877.947Zm11.853-15.514a5.466,5.466,0,0,0-1.679.261l-.042.014-.043.009c-1.118.248-2.21.6-2.472.684-.566.211-5.633,2.072-9.556,2.072-4.352,0-7.7-1.674-11.326-3.7a11.965,11.965,0,0,0-5.688-1.693l-.287,0c-.071,0-.232-.009-.3-.009a7.723,7.723,0,1,0,.05,15.443l.083.01a3.748,3.748,0,0,0,.462.023,12.012,12.012,0,0,0,5.683-1.7c3.621-2.024,6.973-3.7,11.326-3.7,3.918,0,8.993,1.861,9.608,2.091a25.8,25.8,0,0,0,2.884.762,8.2,8.2,0,0,0,1.155.149l.145.005a5.367,5.367,0,1,0,0-10.733Z" transform="translate(-849.556 -843.548)" fill="#002f6e" stroke="rgba(0,0,0,0)" stroke-miterlimit="10" stroke-width="1"/>
</svg>
