<svg xmlns="http://www.w3.org/2000/svg" width="173.357" height="173.357" viewBox="0 0 173.357 173.357">
  <path id="icone_lupa" d="M-1368-24.536l-29.44-29.44a3.045,3.045,0,0,1,0-4.307l5.922-5.922-19.605-19.606a64.022,64.022,0,0,1-43.4,16.784,64.062,64.062,0,0,1-45.6-18.888,64.062,64.062,0,0,1-18.888-45.6,64.064,64.064,0,0,1,18.888-45.6,64.062,64.062,0,0,1,45.6-18.888,64.068,64.068,0,0,1,45.6,18.888,65.567,65.567,0,0,1,4.913,5.5,1.713,1.713,0,0,1-.313,2.433l-2.137,1.607a1.707,1.707,0,0,1-2.361-.3,59.648,59.648,0,0,0-4.41-4.934,58.065,58.065,0,0,0-43.744-17.053,58.3,58.3,0,0,0-37.444,15.7,58.062,58.062,0,0,0-18.5,43.268,58.466,58.466,0,0,0,16.8,40.361,58.019,58.019,0,0,0,41.626,17.408,58.527,58.527,0,0,0,41.641-17.488,57.875,57.875,0,0,0,16.313-47.828,1.707,1.707,0,0,1,1.446-1.891l2.642-.39a1.715,1.715,0,0,1,1.951,1.493,64.866,64.866,0,0,1-16.326,51.1l19.607,19.609,5.923-5.923a3.045,3.045,0,0,1,4.307,0l29.44,29.441a3.044,3.044,0,0,1,0,4.306l-16.152,16.152a3.036,3.036,0,0,1-2.153.893A3.039,3.039,0,0,1-1368-24.536Zm-22.98-31.594L-1365.841-31-1354-42.841l-25.133-25.133Zm-80.718-53.815-2.208-1.5a1.711,1.711,0,0,1-.451-2.376l30.541-44.845a3.042,3.042,0,0,1,1.949-1.277,3.041,3.041,0,0,1,2.282.475l28.27,19.254,27.578-40.494-15.427,2.927a1.711,1.711,0,0,1-2-1.362l-.5-2.624a1.71,1.71,0,0,1,1.361-2l25.646-4.866,4.867,25.645a1.711,1.711,0,0,1-1.361,2l-2.625.5a1.71,1.71,0,0,1-2-1.361l-2.928-15.43-29.293,43.013a3.052,3.052,0,0,1-1.95,1.277,3.034,3.034,0,0,1-2.282-.475l-28.27-19.254-28.827,42.327a1.71,1.71,0,0,1-1.416.748A1.7,1.7,0,0,1-1471.693-109.945Z" transform="translate(1519.5 196.5)" fill="#fec63e" stroke="rgba(0,0,0,0)" stroke-miterlimit="10" stroke-width="1"/>
</svg>
