<svg xmlns="http://www.w3.org/2000/svg" width="56.007" height="70" viewBox="0 0 56.007 70"><defs><style>.a{fill:#002f6e;}</style></defs><path class="a" d="M475.815,735.523l-2.491,3.284a1.522,1.522,0,0,1-.213.229,1.642,1.642,0,0,1-.118.13,4.62,4.62,0,0,1-6.53-6.538,1.605,1.605,0,0,1,.126-.114,1.929,1.929,0,0,1,.185-.172A19.232,19.232,0,0,1,460.893,727h-4.214v10.691a4.857,4.857,0,0,0,4.852,4.852h21.021v-6.88A29.111,29.111,0,0,1,475.815,735.523Zm-14.691,4.386a1.646,1.646,0,1,1,1.646-1.646A1.647,1.647,0,0,1,461.124,739.909Zm36.3-50.439a1.733,1.733,0,1,0-1.733-1.733A1.733,1.733,0,0,0,497.425,689.47ZM467.572,733.5c-.042.037-.088.065-.129.1a3.234,3.234,0,0,0,4.574,4.574c.04-.04.067-.087.105-.129a.657.657,0,0,0,.1-.084l11.233-14.8a.708.708,0,0,0-.992-.993l-14.8,11.233A.627.627,0,0,0,467.572,733.5Zm-7.649-44.033a1.733,1.733,0,1,0-1.733-1.733A1.733,1.733,0,0,0,459.923,689.47Zm18.751.859a20.589,20.589,0,0,0-8.432,39.374l4.621-3.507a15.747,15.747,0,1,1,8.135-.141l-4.139,5.456a20.591,20.591,0,0,0-.186-41.182Zm17.282-11.981H461.392a10.733,10.733,0,0,0-10.722,10.721v48.558a10.734,10.734,0,0,0,10.722,10.721h34.564a10.733,10.733,0,0,0,10.72-10.721V689.069A10.733,10.733,0,0,0,495.957,678.348Zm5.869,59.279a5.875,5.875,0,0,1-5.869,5.87H461.392a5.876,5.876,0,0,1-5.871-5.87V689.069a5.877,5.877,0,0,1,5.871-5.87h34.564a5.876,5.876,0,0,1,5.869,5.87Zm-4.4.116a1.733,1.733,0,1,0,1.733,1.733A1.732,1.732,0,0,0,497.425,737.743Zm-11.63-26.82a7.121,7.121,0,1,0-7.121,7.121A7.13,7.13,0,0,0,485.795,710.923Zm-7.121,2.269a2.269,2.269,0,1,1,2.269-2.269A2.272,2.272,0,0,1,478.674,713.192Z" transform="translate(-450.67 -678.348)"/></svg>