<svg xmlns="http://www.w3.org/2000/svg" width="81.006" height="70" viewBox="0 0 81.006 70"><defs><style>.a{fill:#002f6e;}</style></defs><path class="a" d="M316.241,170.486a10.9,10.9,0,1,1-10.9,10.9,10.9,10.9,0,0,1,10.9-10.9Zm0,5.187a5.71,5.71,0,1,0,5.71,5.711,5.71,5.71,0,0,0-5.71-5.711Zm-3.177-6.6L288.659,126.8a3.235,3.235,0,0,0-5.6,3.242l7.224,12.514-18.408-.023a2.583,2.583,0,1,0,0,5.167l21.394.026,14.148,24.506a12.694,12.694,0,0,1,5.646-3.161Zm15.444,8.967,17.308-9.994a3.234,3.234,0,1,0-3.241-5.6l-17.3,9.99a12.7,12.7,0,0,1,3.238,5.6Zm3.818-55.755L350.3,153.411l-28.577,16.5a12.645,12.645,0,0,0-4.072-1.162L301.2,140.255l31.128-17.973ZM321.4,133.669l2.114,3.662-5.23,3.019-2.114-3.662-8.966,5.177,13.573,23.509L344.288,151.8l-13.573-23.509-9.312,5.377Zm15.753,20.473-2.918-5.053,2.007-1.159L329.656,145l-.753,7.173,2.007-1.159,2.918,5.053,3.329-1.922Zm-7.885,4.553-2.918-5.053,2.007-1.16-6.589-2.934-.754,7.174,2.007-1.159,2.918,5.053,3.329-1.922Z" transform="translate(-269.292 -122.282)"/></svg>