<svg xmlns="http://www.w3.org/2000/svg" width="51.971" height="71" viewBox="0 0 51.971 71"><defs><style>.a{fill:#002f6e;stroke:rgba(0,0,0,0);stroke-miterlimit:10;}</style></defs><path class="a" d="M39.486-126l-.066,0a2.794,2.794,0,0,1-.946-.163L15.539-134.3A2.155,2.155,0,0,1,14-136.282v-23.739a2.019,2.019,0,0,1,.775-1.552,2.511,2.511,0,0,1,.856-.51l13.226-4.728a2.767,2.767,0,0,1,.95-.166,2.8,2.8,0,0,1,1.163.249c-2.87-3.946-5.546-8.964-5.906-14.261a13.523,13.523,0,0,1,3.595-10.274A15.4,15.4,0,0,1,39.919-196a15.414,15.414,0,0,1,11.274,4.735,13.538,13.538,0,0,1,3.6,10.277c-.8,11.7-12.9,22.043-13.416,22.476a2.23,2.23,0,0,1-1.44.526,2.266,2.266,0,0,1-1.454-.526,49.9,49.9,0,0,1-6.2-6.495,1.865,1.865,0,0,1-.182.994,2.323,2.323,0,0,1-1.344,1.158l-7.839,2.8,16.567,5.879L56.2-160.106l-6.466-2.3a2.322,2.322,0,0,1-1.346-1.157,1.864,1.864,0,0,1,0-1.64,2.51,2.51,0,0,1,2.3-1.327,2.791,2.791,0,0,1,.948.164l11.8,4.193a2.144,2.144,0,0,1,1.534,2.073.748.748,0,0,1,0,.076v23.739a2.156,2.156,0,0,1-1.54,1.98L40.5-126.162a2.766,2.766,0,0,1-.943.162ZM41.9-150.4v19.108L60-137.715v-19.109ZM18.967-137.715l17.97,6.376v-19.108l-17.97-6.377Zm12.956-50.5a9,9,0,0,0-2.4,6.925c.524,7.672,7.368,15.1,10.4,18.041,3.038-2.946,9.887-10.391,10.41-18.041a8.994,8.994,0,0,0-2.406-6.925,10.92,10.92,0,0,0-8-3.318A10.929,10.929,0,0,0,31.923-188.215Zm.536,6.581a7.565,7.565,0,0,1,7.556-7.558,7.566,7.566,0,0,1,7.556,7.558,7.564,7.564,0,0,1-7.556,7.555A7.563,7.563,0,0,1,32.459-181.634Zm4.467,0a3.092,3.092,0,0,0,3.09,3.089,3.092,3.092,0,0,0,3.09-3.089,3.1,3.1,0,0,0-3.09-3.092A3.1,3.1,0,0,0,36.926-181.634Z" transform="translate(-13.5 196.5)"/></svg>