<svg xmlns="http://www.w3.org/2000/svg" width="161.254" height="48.533" viewBox="0 0 161.254 48.533"><defs><style>.a{fill:#fff;stroke:rgba(0,0,0,0);stroke-miterlimit:10;}</style></defs><path class="a" d="M14-172.23A23.791,23.791,0,0,1,37.763-196a23.923,23.923,0,0,1,4.267.384A23.78,23.78,0,0,1,59.266-182.36a12.264,12.264,0,0,1-2.345.221,12.52,12.52,0,0,1-7.412-2.41,15.761,15.761,0,0,0-1.6-1.355,16.852,16.852,0,0,0-10.149-3.355A17.044,17.044,0,0,0,20.742-172.23,17.038,17.038,0,0,0,37.763-155.21a16.9,16.9,0,0,0,10.142-3.348,17.49,17.49,0,0,0,1.368-1.133,12.474,12.474,0,0,1,7.407-2.41,13.124,13.124,0,0,1,2.475.24,23.817,23.817,0,0,1-17.373,13.055,24.683,24.683,0,0,1-4.019.338A23.79,23.79,0,0,1,14-172.23Zm91.945,10.259c0-1.682.933-3.014,2.6-3.014,1.554,0,2.529,1.232,2.529,2.984,0,1.615-.859,3.044-2.6,3.044C106.845-158.958,105.945-160.291,105.945-161.971Zm.849-.026c0,1.244.58,2.307,1.719,2.307,1.23,0,1.712-1.087,1.712-2.3,0-1.233-.545-2.264-1.715-2.264C107.317-164.254,106.794-163.227,106.794-162Zm53,.046c0-1.595.831-3.034,2.516-3.034a2.048,2.048,0,0,1,2.183,1.792h-.814a1.342,1.342,0,0,0-1.4-1.079c-1.165,0-1.637,1.13-1.637,2.293,0,1.12.442,2.3,1.668,2.3a1.365,1.365,0,0,0,1.364-1.05h.817a2.13,2.13,0,0,1-2.215,1.763C160.617-158.967,159.791-160.294,159.791-161.951Zm13.345,2.91-.579-1.681h-2.152l-.558,1.681h-.807l1.934-5.859h1.007L174-159.042Zm-2.53-2.417h1.752c-.5-1.482-.777-2.3-.9-2.758h-.008C171.319-163.7,171.007-162.727,170.607-161.459Zm-16.852,2.417V-164.9h.814v5.859Zm-7.445,0v-5.123H144.56v-.736h4.318v.736h-1.751v5.123Zm-6.271,0-.578-1.681h-2.152l-.558,1.681h-.807l1.934-5.859h1.007l2.018,5.859Zm-2.529-2.417h1.752c-.5-1.482-.777-2.3-.9-2.758h-.008C138.222-163.7,137.91-162.727,137.51-161.459Zm-7.31,2.417v-2.441c0-1.071.012-2.18.035-2.805H130.2c-.238,1-1.062,3.4-1.671,5.246h-.719c-.46-1.519-1.311-4.226-1.556-5.258h-.027c.043.679.062,1.961.062,2.966v2.291h-.759V-164.9h1.212c.585,1.763,1.292,4.029,1.476,4.8h.012c.13-.6.973-3.079,1.581-4.8h1.176v5.859Zm-10.778,0a4.34,4.34,0,0,1-.1-1.27v-.118c0-.8-.207-1.149-1.171-1.149H117.1v2.537h-.8V-164.9h2.191a1.546,1.546,0,0,1,1.747,1.575,1.34,1.34,0,0,1-.908,1.38c.414.124.806.471.806,1.494v.258a4.524,4.524,0,0,0,.075,1.152ZM117.1-162.3h1.153c.8,0,1.148-.323,1.148-.95,0-.595-.363-.932-1.076-.932H117.1Zm-19.541,3.257V-164.9h3.577v.736H98.356v1.813h2.606v.736H98.356v2.574Zm-6.556,0c-.7-1.248-2.409-4.306-2.74-4.967h-.011c.039.638.042,1.671.042,2.728v2.239H87.53V-164.9h1.058c.767,1.359,2.392,4.172,2.689,4.808h.012c-.055-.725-.05-1.667-.05-2.625V-164.9H92v5.859Zm-9.847,0V-164.9h.814v5.859Zm-43.885-5.477-.084-.011a7.809,7.809,0,0,1-7.909-7.718,7.8,7.8,0,0,1,7.859-7.725c.071,0,.232.005.3.009l.287,0a11.966,11.966,0,0,1,5.689,1.694c3.621,2.023,6.974,3.7,11.326,3.7,3.923,0,8.99-1.861,9.556-2.073.261-.088,1.354-.436,2.471-.683l.043-.009.041-.014a5.464,5.464,0,0,1,1.679-.262A5.425,5.425,0,0,1,74-172.247a5.422,5.422,0,0,1-5.467,5.364l-.145,0a8.325,8.325,0,0,1-1.155-.149,25.856,25.856,0,0,1-2.885-.761c-.615-.23-5.69-2.092-9.607-2.092-4.353,0-7.7,1.674-11.326,3.7a12.012,12.012,0,0,1-5.683,1.7A3.912,3.912,0,0,1,37.271-164.518Zm100.694-.9,1.147-1.163h1l-1.362,1.163ZM98.8-177.6c0-4.536,3.383-8.558,8.973-8.558,5.759,0,8.862,4.043,8.862,8.54,0,4.571-3.049,8.654-9.048,8.654C102-168.967,98.8-172.789,98.8-177.6Zm4.219-.049c0,3.118,1.581,5.56,4.8,5.56,3.321,0,4.6-2.8,4.6-5.482,0-2.921-1.424-5.461-4.762-5.461C104.446-183.036,103.022-180.433,103.022-177.653Zm-23.3.1c0-4.5,3.133-8.613,8.951-8.613,5.052,0,7.571,2.809,8.053,5.566H92.669c-.338-.944-1.229-2.462-4.045-2.462-3.083,0-4.687,2.348-4.687,5.359,0,3.037,1.465,5.647,4.711,5.647,2.346,0,3.378-.913,4.019-2.5h4.026c-.765,2.9-3.062,5.588-8.238,5.588C82.562-168.967,79.718-173.043,79.718-177.548Zm89.954,8.23-1.534-3.743H160.8l-1.439,3.743h-4.118l6.643-16.493h5.132L174-169.318Zm-7.838-6.951h5.186c-1.535-3.78-2.282-5.707-2.678-6.966h-.022C163.95-182,163.076-179.493,161.834-176.269Zm-12.7,6.951a10.52,10.52,0,0,1-.308-3.452v-.542c0-1.666-.611-2.363-3.016-2.363h-3.352v6.356H138.5V-185.81h8.981c3.8,0,5.98,1.877,5.98,4.712a3.863,3.863,0,0,1-2.87,3.9c.675.266,2.446.914,2.446,3.877v.824a13.5,13.5,0,0,0,.207,3.18Zm-6.675-9.357h4.125c1.943,0,2.785-.7,2.785-2.092,0-1.3-.862-2.042-2.75-2.042h-4.159Zm-22.528,9.357V-185.81h9.128c3.947,0,5.663,1.921,5.663,4.248a3.629,3.629,0,0,1-2.462,3.518,3.977,3.977,0,0,1,3.064,3.817c0,3.1-2.374,4.91-6.414,4.91Zm3.94-2.978h4.521c1.542,0,2.713-.453,2.713-2.084,0-1.317-.895-2-2.637-2h-4.6Zm0-7.059h4.351c1.792,0,2.363-.709,2.363-1.707,0-1.244-.945-1.75-2.327-1.75h-4.386Z" transform="translate(-13.5 196.5)"/></svg>