<svg xmlns="http://www.w3.org/2000/svg" viewBox="0 0 103.38 61.27"><defs><style>.cls-1{fill:#fff;fill-rule:evenodd;}</style></defs><g id="Layer_2" data-name="Layer 2"><g id="Layer_1-2" data-name="Layer 1"><path class="cls-1" d="M35.05,6.19H10.28V0H48.62L32.22,18.87l.27.07-.11.12.27-.08q1,.25,1.92.6a20,20,0,0,1,6.79,4.06,18.3,18.3,0,0,1,4.45,6.3,19.93,19.93,0,0,1,1.56,7.85,23.48,23.48,0,0,1-5,14.78c-.53-.06-1-.14-1.56-.25a17.58,17.58,0,0,1-3.52-1.11c-.5-.21-1-.46-1.47-.72,3.81-3.27,5.34-8.21,5.34-12.7,0-8-6.07-13.44-15.09-13.44H19.27l4.45-5.13h0Zm-11.73,48C12.14,53.62,7.11,45.68,6.21,38.84l0-.33-.11-.32H0a11.91,11.91,0,0,0,.08,1.46,24.05,24.05,0,0,0,7,14.16c4.44,4.3,10.48,6.57,17.48,6.57a27.41,27.41,0,0,0,5.92-.61A29.22,29.22,0,0,1,23.32,54.16Zm35.6-5.28a20.31,20.31,0,0,1-14.39,6,21.22,21.22,0,0,1-4.14-.4,19.68,19.68,0,0,1-3.94-1.25,20.5,20.5,0,0,1-7.36-5.43,20.21,20.21,0,0,1-4.25-8.08,22.89,22.89,0,0,1-.51-2.57,23.16,23.16,0,0,1-.15-2.62A20.26,20.26,0,0,1,25,28.75c.13-.45.28-.9.44-1.34H18.71a26.52,26.52,0,0,0-1,7.08A27.31,27.31,0,0,0,18,37.92a25.6,25.6,0,0,0,.66,3.36A26.76,26.76,0,0,0,33.92,59.07a26.22,26.22,0,0,0,5.2,1.64,26.72,26.72,0,0,0,24.35-7.28,26.92,26.92,0,0,0,6.15-9.54h-7A20,20,0,0,1,58.92,48.88Zm0-28.77a20,20,0,0,1,3.66,5h7A26.82,26.82,0,0,0,45.11,7.72l-6.29,7.22a20.51,20.51,0,0,1,5.71-.79A20.27,20.27,0,0,1,58.92,20.11Zm10,9.61L67,33.07h0l-1.87-3.35H63.06l3,5.15v4h1.84v-4L71,29.72Zm3.23,9.18h6.15V37.28H73.92V35.15h3.27v-1.6H73.92v-2.2H78V29.72H72.12Zm13.66,0h1.91l-3.42-9.18H82.51l-3.4,9.18H81l.63-1.83h3.52Zm-3.62-3.39,1.23-3.6h0l1.23,3.6ZM96,38.9,93.7,35.57v0a2.68,2.68,0,0,0,1.88-2.77,2.85,2.85,0,0,0-3.2-3.06H88.91V38.9H90.7V35.76h1.06l2.06,3.14ZM90.7,31.33h1.35c1.06,0,1.65.56,1.65,1.41s-.6,1.42-1.72,1.42H90.7ZM100.13,39c1.5,0,3.25-.82,3.25-2.83,0-1.76-1.26-2.18-2.84-2.8C99.48,33,99,32.73,99,32.15a1,1,0,0,1,1.1-.92,3.3,3.3,0,0,1,2,.91l1-1.37a4.74,4.74,0,0,0-3.09-1.16,2.79,2.79,0,0,0-3,2.63c0,1.73,1.39,2.37,2.78,2.86,1.11.38,1.6.62,1.6,1.3s-.44,1-1.32,1a3.15,3.15,0,0,1-2.29-1.15l-1.09,1.35A4.64,4.64,0,0,0,100.13,39Z"/></g></g></svg>