<svg xmlns="http://www.w3.org/2000/svg" viewBox="0 0 102.96 61.27"><defs><style>.cls-1{fill:#fff;fill-rule:evenodd;}</style></defs><g id="Layer_2" data-name="Layer 2"><g id="Layer_1-2" data-name="Layer 1"><path class="cls-1" d="M35.05,6.19H10.28V0H48.62L32.22,18.87l.27.07-.11.12.27-.08q1,.25,1.92.6a20,20,0,0,1,6.79,4.06,18.3,18.3,0,0,1,4.45,6.3,19.93,19.93,0,0,1,1.56,7.85,23.48,23.48,0,0,1-5,14.78c-.53-.06-1-.14-1.56-.25a17.58,17.58,0,0,1-3.52-1.11c-.5-.21-1-.46-1.47-.72,3.81-3.27,5.34-8.21,5.34-12.7,0-8-6.07-13.44-15.09-13.44H19.27l4.45-5.13h0Zm-11.73,48C12.14,53.62,7.11,45.68,6.21,38.84l0-.33-.11-.32H0a11.91,11.91,0,0,0,.08,1.46,24.05,24.05,0,0,0,7,14.16c4.44,4.3,10.48,6.57,17.48,6.57a27.41,27.41,0,0,0,5.92-.61A29.22,29.22,0,0,1,23.32,54.16Zm35.6-5.28a20.31,20.31,0,0,1-14.39,6,21.22,21.22,0,0,1-4.14-.4,19.68,19.68,0,0,1-3.94-1.25,20.5,20.5,0,0,1-7.36-5.43,20.21,20.21,0,0,1-4.25-8.08,22.89,22.89,0,0,1-.51-2.57,23.16,23.16,0,0,1-.15-2.62A20.26,20.26,0,0,1,25,28.75c.13-.45.28-.9.44-1.34H18.71a26.52,26.52,0,0,0-1,7.08A27.31,27.31,0,0,0,18,37.92a25.6,25.6,0,0,0,.66,3.36A26.76,26.76,0,0,0,33.92,59.07a26.22,26.22,0,0,0,5.2,1.64,26.72,26.72,0,0,0,24.35-7.28,26.92,26.92,0,0,0,6.15-9.54h-7A20,20,0,0,1,58.92,48.88Zm0-28.77a20,20,0,0,1,3.66,5h7A26.82,26.82,0,0,0,45.11,7.72l-6.29,7.22a20.51,20.51,0,0,1,5.71-.79A20.27,20.27,0,0,1,58.92,20.11Zm11.61,19h2.09L68.87,29H66.94L63.2,39.12h2.09l.69-2h3.87Zm-4-3.73,1.35-4h0l1.35,4ZM80.47,29v6.81h0L76,29H74V39.12h2V32.43h0l4.44,6.69h2V29Zm-3.08-1.71a1.55,1.55,0,0,1,.77.3A2.27,2.27,0,0,0,79.4,28c.79,0,1.38-.72,1.67-1.78L80,25.9c-.18.43-.46.7-.81.7a1.45,1.45,0,0,1-.76-.32,2.18,2.18,0,0,0-1.23-.38c-.83,0-1.41.7-1.7,1.65l1.11.48C76.77,27.6,77,27.32,77.39,27.32Zm12,11.92a4.94,4.94,0,0,0,5.13-5.17,5.14,5.14,0,1,0-10.28,0A5,5,0,0,0,89.42,39.24Zm0-1.86a3.12,3.12,0,0,1-3.08-3.31,3.07,3.07,0,1,1,6.13,0A3.11,3.11,0,0,1,89.43,37.38Zm9.95,1.86c1.65,0,3.58-.9,3.58-3.11,0-1.94-1.38-2.4-3.13-3.08-1.15-.45-1.7-.72-1.69-1.35s.52-1,1.21-1a3.66,3.66,0,0,1,2.2,1l1.15-1.5a5.22,5.22,0,0,0-3.4-1.27,3.06,3.06,0,0,0-3.24,2.88c0,1.9,1.53,2.61,3,3.15,1.22.42,1.76.68,1.76,1.43s-.49,1.06-1.45,1.06a3.43,3.43,0,0,1-2.51-1.26l-1.2,1.48A5.08,5.08,0,0,0,99.38,39.24Z"/></g></g></svg>