<svg xmlns="http://www.w3.org/2000/svg" viewBox="0 0 133.32 79.02"><defs><style>.cls-1,.cls-2{fill:#fff;}.cls-1{fill-rule:evenodd;}</style></defs><g id="Layer_2" data-name="Layer 2"><g id="Layer_1-2" data-name="Layer 1"><path class="cls-1" d="M30.59,24.79h0L24.86,31.4h8.78c11.65,0,19.47,7,19.47,17.34,0,5.79-2,12.16-6.89,16.38.62.34,1.25.65,1.9.93a24.12,24.12,0,0,0,4.53,1.43c.66.13,1.33.24,2,.31a30.25,30.25,0,0,0,6.42-19.05,25.69,25.69,0,0,0-2-10.13,23.7,23.7,0,0,0-5.74-8.12,26.85,26.85,0,0,0-11.24-6l-.34.1.14-.16-.34-.08L62.7,0H13.26V8H45.2Z"/><path class="cls-1" d="M30.08,69.85C15.66,69.15,9.17,58.91,8,50.09l0-.42-.15-.41H0a16.92,16.92,0,0,0,.1,1.88,31.05,31.05,0,0,0,9,18.27c5.72,5.54,13.52,8.47,22.55,8.47a35.56,35.56,0,0,0,7.63-.79A37.79,37.79,0,0,1,30.08,69.85Z"/><path class="cls-2" d="M80.71,56.6h9.07A34.52,34.52,0,0,1,57.43,79a35,35,0,0,1-13.68-2.84A34.52,34.52,0,0,1,24,53.24a37,37,0,0,1-.84-4.34,35.81,35.81,0,0,1-.3-4.42,34.32,34.32,0,0,1,1.24-9.13H32.8c-.2.57-.41,1.15-.57,1.73a25.9,25.9,0,0,0-1,7.4,28.87,28.87,0,0,0,.2,3.38A28.89,28.89,0,0,0,32,51.17,26.44,26.44,0,0,0,47,68.6a25.06,25.06,0,0,0,5.08,1.6,26.93,26.93,0,0,0,5.34.53A26.18,26.18,0,0,0,76,63,25.89,25.89,0,0,0,80.71,56.6Z"/><path class="cls-2" d="M57.43,18.25a26.44,26.44,0,0,0-7.36,1L58.17,10A34.57,34.57,0,0,1,89.78,32.37H80.71A26.22,26.22,0,0,0,57.43,18.25Z"/><path class="cls-2" d="M99.59,59.9a1.88,1.88,0,0,1,0-2.62,1.94,1.94,0,0,1,2.33-.22,1.66,1.66,0,0,1,.65.84h-.87a.83.83,0,0,0-.81-.47,1,1,0,0,0-.79.31,1.17,1.17,0,0,0-.31.85,1.16,1.16,0,0,0,.31.85,1,1,0,0,0,.74.32,1,1,0,0,0,.7-.22.92.92,0,0,0,.31-.58h-1.18v-.55h2V59a1.81,1.81,0,0,1-3,.94Z"/><path class="cls-2" d="M105.53,60.38l-.23-.67h-1.39l-.23.67h-.76l1.26-3.57H105l1.26,3.57Zm-1.43-1.22h1l-.51-1.48Z"/><path class="cls-2" d="M107.51,59v1.42h-.72V56.82h1.31a1.33,1.33,0,0,1,1,.31,1,1,0,0,1,.34.76,1.12,1.12,0,0,1-.2.63,1.15,1.15,0,0,1-.65.4l.91,1.46h-.85L107.74,59Zm0-1.59v1h.59a.61.61,0,0,0,.42-.14.59.59,0,0,0,0-.76.61.61,0,0,0-.42-.14Z"/><path class="cls-2" d="M112.44,60.38l-.23-.67h-1.38l-.23.67h-.77l1.27-3.57H112l1.26,3.57ZM111,59.16h1l-.51-1.48Z"/><path class="cls-2" d="M116,56.81h.72v3.57H116l-1.61-2.47v2.47h-.72V56.81h.72L116,59.28Z"/><path class="cls-2" d="M117.32,57.37v-.55H120v.55h-1v3h-.71v-3Z"/><path class="cls-2" d="M120.51,60.38V56.82h.72v3.56Z"/><path class="cls-2" d="M124.33,56.81h.72v3.57h-.72l-1.61-2.47v2.47H122V56.81h.72l1.61,2.47Z"/><path class="cls-2" d="M127,56.82a1.94,1.94,0,0,1,1.39.49,1.85,1.85,0,0,1,0,2.59,2,2,0,0,1-1.39.48h-1.21V56.82Zm-.49,3H127a1.12,1.12,0,0,0,.88-.34,1.45,1.45,0,0,0,0-1.79,1.12,1.12,0,0,0-.88-.34h-.49Z"/><path class="cls-2" d="M131.13,60.42a1.79,1.79,0,0,1-1.3-.52,1.9,1.9,0,0,1,0-2.62A1.83,1.83,0,0,1,133,58.59a1.79,1.79,0,0,1-1.83,1.83Zm.79-1a1.35,1.35,0,0,0,0-1.7,1.16,1.16,0,0,0-1.58,0,1.21,1.21,0,0,0-.3.85,1.19,1.19,0,0,0,.3.85,1.14,1.14,0,0,0,1.58,0Z"/><path class="cls-2" d="M98.94,66.51l-.23-.67H97.32l-.23.67h-.77l1.27-3.57h.85l1.26,3.57ZM97.5,65.29h1L98,63.8Z"/><path class="cls-2" d="M102.88,63.47a.56.56,0,0,0-.35.11.39.39,0,0,0-.13.31.42.42,0,0,0,.1.3.62.62,0,0,0,.26.17l.36.1a2.91,2.91,0,0,1,.39.12,1.25,1.25,0,0,1,.35.16.73.73,0,0,1,.27.28,1.06,1.06,0,0,1,.1.45,1,1,0,0,1-.35.76,1.36,1.36,0,0,1-.93.32,1.46,1.46,0,0,1-.94-.28.89.89,0,0,1-.36-.76h.77A.47.47,0,0,0,103,66a.56.56,0,0,0,.38-.13.43.43,0,0,0,.15-.34.42.42,0,0,0-.19-.34,1.47,1.47,0,0,0-.46-.18,5.44,5.44,0,0,1-.54-.15,1.08,1.08,0,0,1-.46-.3.9.9,0,0,1-.19-.58,1,1,0,0,1,.35-.77,1.37,1.37,0,0,1,.91-.3,1.43,1.43,0,0,1,.89.26,1,1,0,0,1,.37.77h-.79a.47.47,0,0,0-.15-.33A.5.5,0,0,0,102.88,63.47Z"/><path class="cls-2" d="M107,62.94v.55h-1.33v.93h1.18V65h-1.18v1H107v.55h-2V62.94Z"/><path class="cls-2" d="M108,66a1.83,1.83,0,0,1,1.29-3.14,1.84,1.84,0,0,1,1,.3A1.66,1.66,0,0,1,111,64h-.86a.85.85,0,0,0-.82-.47,1.07,1.07,0,0,0-.79.32,1.21,1.21,0,0,0-.3.85,1.19,1.19,0,0,0,.3.85,1,1,0,0,0,.75.32,1,1,0,0,0,.69-.22.93.93,0,0,0,.32-.58h-1.19v-.55h2v.55a1.74,1.74,0,0,1-1.78,1.45A1.72,1.72,0,0,1,108,66Z"/><path class="cls-2" d="M111.63,65.14V63h.72v2.19a.79.79,0,0,0,.18.56.73.73,0,0,0,.54.19.69.69,0,0,0,.53-.19.75.75,0,0,0,.19-.56V63h.72v2.19a1.27,1.27,0,0,1-.43,1,1.48,1.48,0,0,1-1,.37,1.43,1.43,0,0,1-1-.37A1.29,1.29,0,0,1,111.63,65.14Z"/><path class="cls-2" d="M116,65.09v1.42h-.72V63h1.31a1.33,1.33,0,0,1,1,.31,1,1,0,0,1,.34.76,1.08,1.08,0,0,1-.21.63,1.09,1.09,0,0,1-.64.4l.91,1.46h-.85l-.86-1.42Zm0-1.59v1h.59a.56.56,0,0,0,.41-.14.56.56,0,0,0,0-.76.53.53,0,0,0-.41-.14Z"/><path class="cls-2" d="M120.91,66.51l-.23-.67h-1.39l-.23.67h-.76l1.26-3.57h.86l1.25,3.57Zm-1.43-1.22h1L120,63.8Z"/><path class="cls-2" d="M124.51,62.94h.72v3.57h-.72L122.89,64v2.47h-.72V62.94h.72l1.62,2.47Z"/><path class="cls-2" d="M127.62,63.55a1,1,0,0,0-.79.32,1.22,1.22,0,0,0-.31.85,1.2,1.2,0,0,0,.31.85,1,1,0,0,0,.79.32.84.84,0,0,0,.81-.47h.87a1.65,1.65,0,0,1-.57.77,1.77,1.77,0,0,1-.9.34v.2a.77.77,0,0,1,.47.14.47.47,0,0,1,.19.41.5.5,0,0,1-.19.42.69.69,0,0,1-.47.16h-.74v-.42h.57a.61.61,0,0,0,.22,0s.06-.06.06-.13,0-.12-.06-.14l-.22,0h-.28v-.59a1.76,1.76,0,0,1-1.14-.59,1.79,1.79,0,0,1-.45-1.25,1.72,1.72,0,0,1,.53-1.28,1.83,1.83,0,0,1,1.3-.52,1.81,1.81,0,0,1,1,.3,1.68,1.68,0,0,1,.65.83h-.87A.83.83,0,0,0,127.62,63.55Z"/><path class="cls-2" d="M132.26,66.51l-.23-.67h-1.39l-.23.67h-.76l1.26-3.57h.85L133,66.51Zm-1.43-1.22h1l-.51-1.49Z"/><path class="cls-2" d="M95,69.07a2,2,0,0,1,1.39.5,1.83,1.83,0,0,1,0,2.58,2,2,0,0,1-1.39.49H93.75V69.07Zm-.49,3H95a1.15,1.15,0,0,0,.88-.33,1.46,1.46,0,0,0,0-1.8,1.15,1.15,0,0,0-.88-.33h-.49Z"/><path class="cls-2" d="M99.5,69.06v.56H98.16v.93h1.19v.55H98.16v1H99.5v.55H97.44V69.06Z"/><path class="cls-2" d="M103,69.07a2,2,0,0,1,1.39.5,1.86,1.86,0,0,1,0,2.58,2,2,0,0,1-1.39.49h-1.21V69.07Zm-.49,3H103a1.15,1.15,0,0,0,.87-.33,1.46,1.46,0,0,0,0-1.8,1.15,1.15,0,0,0-.87-.33h-.49Z"/><path class="cls-2" d="M107.8,72.64l-.23-.67h-1.39l-.23.67h-.76l1.26-3.58h.85l1.26,3.58Zm-1.43-1.22h1l-.51-1.49Z"/><path class="cls-2" d="M110.27,69.07a1.94,1.94,0,0,1,1.39.5,1.83,1.83,0,0,1,0,2.58,1.94,1.94,0,0,1-1.39.49h-1.21V69.07Zm-.49,3h.49a1.15,1.15,0,0,0,.88-.33,1.46,1.46,0,0,0,0-1.8,1.15,1.15,0,0,0-.88-.33h-.49Z"/><path class="cls-2" d="M114.38,72.68a1.81,1.81,0,0,1-1.3-.52,1.91,1.91,0,0,1,0-2.62,1.88,1.88,0,0,1,2.6,0,1.91,1.91,0,0,1,0,2.62A1.81,1.81,0,0,1,114.38,72.68Zm.79-1a1.19,1.19,0,0,0,.3-.85,1.18,1.18,0,0,0-.3-.85,1.07,1.07,0,0,0-.79-.32,1.05,1.05,0,0,0-.79.32,1.35,1.35,0,0,0,0,1.7,1.05,1.05,0,0,0,.79.32A1.07,1.07,0,0,0,115.17,71.7Z"/><path class="cls-2" d="M117.92,69.6a.56.56,0,0,0-.35.11.37.37,0,0,0-.13.3.45.45,0,0,0,.1.31.62.62,0,0,0,.26.17l.36.1.39.11a2,2,0,0,1,.36.17.78.78,0,0,1,.26.28,1.06,1.06,0,0,1,.1.45,1,1,0,0,1-.35.76,1.36,1.36,0,0,1-.93.32,1.52,1.52,0,0,1-.94-.28.91.91,0,0,1-.36-.77h.77a.47.47,0,0,0,.54.47.56.56,0,0,0,.38-.12.43.43,0,0,0,.15-.34.39.39,0,0,0-.19-.34,1.47,1.47,0,0,0-.46-.18,5.44,5.44,0,0,1-.54-.15,1.08,1.08,0,0,1-.46-.3.9.9,0,0,1-.19-.58,1,1,0,0,1,.35-.77A1.37,1.37,0,0,1,118,69a1.43,1.43,0,0,1,.89.26.94.94,0,0,1,.37.76h-.79a.46.46,0,0,0-.15-.32A.5.5,0,0,0,117.92,69.6Z"/><path class="cls-2" d="M123.55,69.06v.56h-1.34v.93h1.18v.55h-1.18v1h1.34v.55h-2.06V69.06Z"/><path class="cls-2" d="M127,69.07a1.94,1.94,0,0,1,1.39.5,1.83,1.83,0,0,1,0,2.58,1.94,1.94,0,0,1-1.39.49h-1.21V69.07Zm-.49,3H127a1.15,1.15,0,0,0,.88-.33,1.46,1.46,0,0,0,0-1.8,1.15,1.15,0,0,0-.88-.33h-.49Z"/><path class="cls-2" d="M131.13,72.68a1.83,1.83,0,0,1-1.3-.52,1.75,1.75,0,0,1-.52-1.31,1.72,1.72,0,0,1,.53-1.31,1.87,1.87,0,0,1,2.59,0,1.88,1.88,0,0,1,0,2.62A1.8,1.8,0,0,1,131.13,72.68Zm.79-1a1.19,1.19,0,0,0,.3-.85,1.18,1.18,0,0,0-.3-.85,1.14,1.14,0,0,0-1.58,0,1.35,1.35,0,0,0,0,1.7,1.14,1.14,0,0,0,1.58,0Z"/><path class="cls-2" d="M96.23,75.2v3.57h-.72V76.52l-1,2.25H94l-1-2.24v2.24h-.72V75.2h.8l1.15,2.65,1.14-2.65Z"/><path class="cls-2" d="M99.05,75.19v.56H97.71v.93H98.9v.55H97.71v1h1.34v.55H97V75.19Z"/><path class="cls-2" d="M99.79,78.77V75.2h.72v3.57Z"/><path class="cls-2" d="M102.9,78.81a1.8,1.8,0,0,1-1.3-.52,1.91,1.91,0,0,1,0-2.62,1.89,1.89,0,0,1,2.6,0,1.91,1.91,0,0,1,0,2.62A1.81,1.81,0,0,1,102.9,78.81Zm.78-1A1.16,1.16,0,0,0,104,77a1.14,1.14,0,0,0-.31-.85,1.12,1.12,0,0,0-1.57,0,1.32,1.32,0,0,0,0,1.7,1.12,1.12,0,0,0,1.57,0Z"/><path class="cls-2" d="M109.16,78.77l-.23-.67h-1.39l-.23.67h-.76l1.26-3.58h.85l1.26,3.58Zm-1.43-1.22h1l-.51-1.49Z"/><path class="cls-2" d="M114.31,75.2v3.57h-.72V76.52l-1,2.25h-.51l-1-2.24v2.24h-.72V75.2h.8l1.15,2.65,1.14-2.65Z"/><path class="cls-2" d="M115.07,75.2h1.45a1.28,1.28,0,0,1,.86.27.84.84,0,0,1,.31.67A.82.82,0,0,1,117,77a.84.84,0,0,1,.56.3.89.89,0,0,1,.22.58.84.84,0,0,1-.32.68,1.34,1.34,0,0,1-.86.26h-1.53Zm.72.56v.92h.65a.56.56,0,0,0,.38-.12.48.48,0,0,0,0-.68.56.56,0,0,0-.38-.12Zm0,2.46h.73a.61.61,0,0,0,.39-.13.49.49,0,0,0,.14-.36.47.47,0,0,0-.15-.37.61.61,0,0,0-.39-.13h-.72Z"/><path class="cls-2" d="M118.39,78.77V75.2h.72v3.57Z"/><path class="cls-2" d="M121.94,75.19v.56H120.6v.93h1.18v.55H120.6v1h1.34v.55h-2.06V75.19Z"/><path class="cls-2" d="M125,75.19h.72v3.58H125l-1.62-2.47v2.47h-.72V75.19h.72L125,77.67Z"/><path class="cls-2" d="M126.28,75.76V75.2h2.65v.56h-1v3h-.72v-3Z"/><path class="cls-2" d="M131.53,75.19v.56H130.2v.93h1.18v.55H130.2v1h1.33v.55h-2.05V75.19Z"/><path class="cls-2" d="M132.92,78.36a.41.41,0,0,1-.41.41.4.4,0,0,1-.29-.12.42.42,0,0,1-.11-.29.44.44,0,0,1,.11-.29.4.4,0,0,1,.29-.12.38.38,0,0,1,.29.12A.4.4,0,0,1,132.92,78.36Z"/><path class="cls-2" d="M90,50.51,89.15,48H84l-.86,2.5H80.25L85,37.15h3.18l4.7,13.36ZM84.66,46h3.8l-1.91-5.56Z"/><path class="cls-2" d="M103.44,37.15h2.69V50.51h-2.69l-6-9.24v9.24H94.72V37.15h2.69l6,9.23Z"/><path class="cls-2" d="M115.06,50.64a6.64,6.64,0,0,1-4.85-1.93,7.08,7.08,0,0,1,0-9.79,7.07,7.07,0,0,1,9.69,0,6.83,6.83,0,0,1-4.85,11.72ZM118,47a5,5,0,0,0,0-6.35,3.86,3.86,0,0,0-2.94-1.18,3.91,3.91,0,0,0-3,1.19A4.4,4.4,0,0,0,111,43.82,4.4,4.4,0,0,0,112.11,47,4.24,4.24,0,0,0,118,47Z"/><path class="cls-2" d="M128.3,39.15a2,2,0,0,0-1.3.41,1.39,1.39,0,0,0-.51,1.14,1.6,1.6,0,0,0,.37,1.13,2.31,2.31,0,0,0,1,.63,13.36,13.36,0,0,0,1.34.4,13.19,13.19,0,0,1,1.45.42,7.09,7.09,0,0,1,1.34.6,2.79,2.79,0,0,1,1,1.06,3.54,3.54,0,0,1,.37,1.69A3.66,3.66,0,0,1,132,49.46a5,5,0,0,1-3.47,1.18,5.62,5.62,0,0,1-3.5-1,3.41,3.41,0,0,1-1.34-2.87h2.87a1.75,1.75,0,0,0,2,1.75A2.14,2.14,0,0,0,130,48a1.6,1.6,0,0,0,.53-1.27,1.41,1.41,0,0,0-.7-1.25,5.11,5.11,0,0,0-1.71-.69c-.67-.15-1.34-.34-2-.55a3.78,3.78,0,0,1-1.72-1.14A3.15,3.15,0,0,1,123.7,41a3.58,3.58,0,0,1,1.32-2.9A5.18,5.18,0,0,1,128.41,37a5.41,5.41,0,0,1,3.33.94,3.66,3.66,0,0,1,1.37,2.87h-2.94a1.8,1.8,0,0,0-.57-1.21A1.85,1.85,0,0,0,128.3,39.15Z"/></g></g></svg>